<?xml version="1.0" standalone="no"?>
<!DOCTYPE svg PUBLIC "-//W3C//DTD SVG 1.1//EN" "http://www.w3.org/Graphics/SVG/1.1/DTD/svg11.dtd" >
<svg xmlns="http://www.w3.org/2000/svg" xmlns:xlink="http://www.w3.org/1999/xlink" version="1.1">
<metadata></metadata>
<defs>
<font id="obela_handbold" horiz-adv-x="802" >
<font-face units-per-em="2048" ascent="1638" descent="-410" />
<missing-glyph horiz-adv-x="569" />
<glyph horiz-adv-x="0" />
<glyph horiz-adv-x="682" />
<glyph unicode=" "  horiz-adv-x="569" />
<glyph unicode="&#x09;" horiz-adv-x="569" />
<glyph unicode="&#xa0;" horiz-adv-x="569" />
<glyph unicode="!" horiz-adv-x="450" d="M96.5 102.5q-5.5 42.5 22.5 77.5q21 22 50 26t49 -2.5t32 -15.5q17 -9 43 -47q7 -16 8.5 -36t-9 -45t-34.5 -40q-36 -17 -68.5 -12t-58.5 27q-29 25 -34.5 67.5zM100 467q5 52 11 387q8 182 20 229q20 81 96 84q49 0 73.5 -42.5t16.5 -100.5q-13 -176 -16 -428 q-4 -140 -4 -147q-3 -72 -27 -107v2q-19 -27 -51 -35t-63 8q-61 33 -56 150z" />
<glyph unicode="&#x22;" horiz-adv-x="655" d="M133 1153q0 33 17 76q27 35 79 41q63 8 78 -53q12 -67 12 -121q0 -81 -32 -113q-21 -27 -62 -31q-30 -4 -56.5 20t-33.5 52v59q-2 20 -2 70zM369 1026v127q0 40 16 72q15 34 80 45q63 8 78 -53q12 -67 12 -121q0 -77 -31 -113q-14 -15 -25.5 -21.5t-37.5 -9.5 q-28 -4 -55.5 21t-36.5 53z" />
<glyph unicode="#" horiz-adv-x="989" d="M96 397v19q1 4 4.5 8t7.5 6l3 2q6 5 34.5 17t54.5 21l25 9q5 1 15.5 4t15.5 4q4 2 13.5 5.5t13.5 5.5q3 4 20.5 27.5t22.5 31.5q-6 -3 -15.5 -6.5t-30 -4.5t-30.5 11q-22 22 -19 59q1 13 7 21l18 10q12 4 34.5 12.5t33.5 12.5q33 9 73 26q5 6 25.5 40t42 71t24.5 41 q14 28 27 43q9 14 21 16h24q48 -14 55 -43q-2 -34 -18 -61q-4 -7 -18.5 -32.5t-22.5 -35.5q54 15 57 17q3 3 9 12q3 7 27.5 47.5t33.5 52.5q12 17 21.5 24t25.5 7q40 0 64 -47l2 -25q-1 -4 -7 -15.5t-13 -22t-7 -11.5q2 0 5.5 1t4.5 1h8q8 1 16 1.5t17 -0.5t13 -3 q13 -7 24 -20q16 -19 10 -43q-9 -29 -41 -39l-131 -27q-12 -12 -18 -24q-27 -54 -29 -56q19 0 64 13q14 2 41 2q35 0 59 -15v-2h2q28 -22 31 -65v-2q4 -11 -4 -23q-4 -4 -9.5 -7t-9.5 -4l-4 -1q-32 -8 -53 -8q-18 -2 -64 -6q-11 -1 -33 -3.5t-34 -3.5q-25 -2 -64 -10 q-21 -36 -24 -45q-10 -18 -21 -43l-2 -6q-6 -13 -18 -36.5t-17 -33.5q-16 -31 -45 -63q-11 -10 -34 -10q-16 0 -25 11t-18 32q-11 32 4 67l51 101q-55 -12 -55 -17q-2 -4 -17 -30t-22 -42l-15 -22l-20 -37q-10 -19 -35 -53q-22 -25 -51 -25q-20 0 -39 15q-6 6 -18 22 q-4 27 0 39q7 20 18 37q14 24 20 31q1 1 9.5 14t9.5 14q-4 -2 -21.5 -7t-21.5 -5q-32 0 -47 12.5t-21 44.5zM406 510l94 18q5 10 31.5 55t29.5 48l-98 -23z" />
<glyph unicode="$" horiz-adv-x="796" d="M70 227q0 35 28.5 63t65.5 17v2q29 -10 70 -32.5t76.5 -36t74.5 -13.5q62 0 98 27q70 48 76 110t-38 109.5t-113 65.5q-11 3 -39 10.5t-37 10t-30 9t-31 11.5l-26 13t-29.5 18t-27.5 22q-37 30 -59.5 82.5t-22.5 111.5q0 52 25 113q64 111 180 147v48v18q-1 4 -1 13t1 12 q14 58 62 75q10 5 41.5 2.5t46.5 -14.5q22 -22 22 -65l-8 -80q62 -13 120 -43.5t71 -53.5q22 -22 27.5 -49t-18 -49t-77.5 -22q-16 0 -57 18q-44 22 -103 35h2q-34 3 -66 -8t-53.5 -30.5t-31 -44.5t-4.5 -49.5t32 -47t74 -35.5q144 -42 189 -62q116 -54 143 -153 q15 -56 6 -131q-11 -103 -70.5 -174.5t-117.5 -96.5q-27 -15 -84 -28l1 -47q0 2 1 5v3q0 -80 -13 -107q-16 -32 -55 -47q-5 -7 -37.5 -5t-50.5 20q-4 4 -7 10.5t-4.5 15.5l-3 18t-1.5 21.5v22t1 23.5t1.5 21.5t2 21t1.5 18.5q-41 11 -62 20q-70 31 -115.5 70.5t-45.5 70.5z " />
<glyph unicode="%" horiz-adv-x="962" d="M169 108q-3 28 7.5 47t22.5 31l20 23v-2q101 122 156 203v-2q246 354 334 442q40 40 80 61t61 7q83 -47 24 -127q-3 -5 -16.5 -21.5t-34.5 -43.5t-37 -48l-71 -92l-195 -267q-21 -29 -48 -64.5t-42 -55t-18 -25.5q-69 -79 -93 -104l-5 -5t-13.5 -8.5t-22.5 -8.5t-32 0 t-41 13v2q-33 17 -36 45zM260 721v18q-1 12 11 34.5t45.5 48t78.5 30.5q63 3 89.5 -15.5t41.5 -62.5l6 -10q18 -39 -8.5 -82.5t-83.5 -63.5q-50 -16 -80 -16q-37 0 -71 37q-14 13 -21 30.5t-7.5 25.5t-0.5 26zM369 752q-27 -44 4 -64q18 -13 47 10t16 47q-13 23 -34 22.5 t-33 -15.5zM506 181.5v27.5v22q-3 23 31 66t94 51q57 3 80.5 -16t38.5 -66l8 -12l-2 2q15 -42 -9 -87.5t-77 -66.5q-46 -16 -72 -16q-40 0 -66 39q-13 13 -19.5 31.5t-6.5 25zM606 244q-28 -47 4 -68q11 -7 27.5 -0.5t27 26t3.5 36.5q-13 23 -32.5 22.5t-29.5 -16.5z" />
<glyph unicode="&#x26;" horiz-adv-x="839" d="M31 270q-6 133 61 230q55 68 70 82l63 55q-38 112 -41 207q-6 177 107 250q62 34 134 36t136 -30q60 -33 93.5 -87.5t33.5 -111.5q0 -86 -61 -171t-148 -152l45 -82l25 -45l18 30q24 32 74 42t86 -19q64 -60 23 -129l-52 -107l17 -22v2q66 -70 84 -103q19 -24 6.5 -56.5 t-51.5 -53.5v2q-56 -36 -113 8h2l-63 53l-13 -12q-108 -104 -231 -104q-139 0 -222 85t-83 203zM231 297q0 -43 23 -78q13 -23 25 -35t26.5 -14t24.5 -0.5t30 8.5q21 8 45 34.5t37 49.5l-75 105l-50 82q-37 -30 -61 -68v2q-25 -35 -25 -86zM387 852l16 -72l29 31l12 18 q14 22 21 35.5t14 30t5.5 28t-11.5 17.5h-2q-20 10 -37.5 7.5t-30.5 -11.5q-16 -8 -16 -84z" />
<glyph unicode="'" horiz-adv-x="278" d="M47 1153q0 36 19 76q23 34 79 41q61 8 76 -53q12 -67 12 -121q0 -78 -30 -113q-14 -15 -25 -21.5t-37 -9.5q-30 -4 -56.5 20t-35.5 52v59q-2 20 -2 70z" />
<glyph unicode="(" horiz-adv-x="430" d="M20 592q1 124 58 272.5t117 186.5q81 39 124 -4q26 -26 30 -65.5t-11 -61.5q-92 -119 -105 -205q-18 -144 -8 -324q20 -177 127 -301q10 -14 17 -34.5t2 -49.5t-33 -47q-72 -46 -137 23q-91 105 -133 237q-51 161 -48 373z" />
<glyph unicode=")" horiz-adv-x="411" d="M63 969q0 69 70 75q27 4 50.5 -4.5t42 -28.5t27 -32t21.5 -35q99 -154 99 -483q0 -220 -82 -389q-8 -18 -14.5 -30t-19 -27.5t-31 -25.5t-42.5 -14q-61 -12 -89.5 35.5t-10.5 83.5l22 41q2 4 13.5 23.5t19.5 36t18 44t17 63t10 77.5q4 82 4 110q0 182 -51 293 q-8 19 -30 60t-33 70.5t-11 56.5z" />
<glyph unicode="*" horiz-adv-x="778" d="M74 1210q-4 25 2 41q0 9 8 17q4 4 9 7.5t8 4.5l3 2q32 4 56 4q16 0 24 -2q17 0 21 -2h20h4l-14 12q-25 21 -49 49q-23 33 -31 72q0 9 6 21q2 5 5.5 9t6.5 5l3 2q23 10 45 10q33 0 73 -37l15 -16q0 3 2 21t4 24q3 16 14 27q5 8 17 12q9 6 24 6q21 0 43 -14h4l6 -8l5 -7 q12 -22 16 -53q0 -35 -2 -51v-8q38 27 39 28q5 3 38 29.5t42 32.5q31 18 61 18q19 2 33 -4q7 -3 15 -15.5t12 -24.5l4 -11q5 -29 -11 -39l-77 -59l-50 -33q2 0 16.5 2.5t16.5 1.5q9 0 17 -4q52 -18 61 -63q4 -7 -2 -17l-8 -14q-18 -18 -37 -21q-28 -4 -45 -4h-19 q-12 0 -20 2q2 -2 12 -10.5t19 -16.5t10 -8q4 -3 22.5 -20.5t22.5 -20.5q17 -14 20 -40v-3q3 -20 -6 -45q-11 -32 -28 -47q-3 -6 -19 -8h-18q-29 13 -45 29q-9 9 -41.5 48t-34.5 42q-8 8 -12 14q0 -14 2 -20v-19q2 -31 2 -90q-3 -45 -21 -82q-16 -16 -28 -20l-15 -2 q-45 0 -69 37v2q-10 13 -13 28l-4 35q0 7 1 20.5t1 20.5q1 6 2 20t2 21l-8 -8q-1 -1 -2.5 -2t-2.5 -2t-1 -2q-48 -48 -78 -68q-2 -1 -6 -2.5t-14.5 -4t-16.5 0.5q-8 2 -9 3.5t-3 2.5q-11 3 -20 12q-8 6 -15 19q-8 8 -8 27q4 21 8 30q1 3 15 27q84 74 88 76q2 2 10.5 7.5 t11.5 8.5l-33 -4h-30q-23 0 -31 2h-2q-10 0 -19 6q-8 4 -14 10l-2 2q-14 21 -14 41z" />
<glyph unicode="+" horiz-adv-x="915" d="M86 518q-8 53 15.5 80t60.5 29q4 0 30.5 -1t51 -1.5t59.5 0.5q15 0 31 -1t26.5 -2t12.5 -1q-3 18 -6.5 46t-8.5 80.5t-2 65.5q3 19 7.5 33.5t15 33.5t30.5 29t48 9q53 -3 71.5 -25.5t18.5 -65.5q0 -55 -2 -86q0 -9 -1 -28t-1 -23l4 -47q86 4 123 4q107 0 145 -47 q24 -31 14 -74q-6 -27 -32 -47.5t-78 -17.5q-97 0 -162 -6q0 -42 4 -88v-121q0 -28 -40 -56.5t-75 -17.5q-31 11 -48.5 36.5t-22.5 53.5l-13 182q-18 -2 -69 -2q-96 0 -133 2q-65 16 -74 74z" />
<glyph unicode="," horiz-adv-x="364" d="M63 55q-6 54 30 88.5t79 36.5q41 2 76 -18.5t51 -61.5l2 -86q1 -78 -43.5 -130t-91.5 -66q-38 -11 -63 -2.5t-25 32.5q0 12 24 55t39 58l2 12q-27 6 -52 27t-28 55z" />
<glyph unicode="-" horiz-adv-x="798" d="M33 469q15 41 31.5 50.5t78.5 10.5l31 2l201 7l100 12q62 4 166 4q3 0 9 -0.5t21.5 -4t28 -10t25 -21t16.5 -34.5q13 -51 -10.5 -79.5t-64.5 -28.5q-96 0 -170 -4l-320 -25l-37 -2q-63 3 -90 47q-31 39 -16 76z" />
<glyph unicode="." horiz-adv-x="294" d="M37 121q20 65 102 78q38 5 78 -24t41 -81q1 -55 -30.5 -83.5t-84.5 -28.5q-54 0 -86 39.5t-20 99.5z" />
<glyph unicode="/" horiz-adv-x="659" d="M29 53.5q0 21.5 4 37.5t10 28q114 222 250 547l172 338q13 26 37 41.5t53 11.5q38 -3 56.5 -29.5t15.5 -55.5t-9 -50l-36 -78l-86 -191q-10 -23 -52.5 -125.5t-59.5 -142t-52 -117.5t-65 -138t-62 -118q-35 -52 -113 -28q-31 9 -47 28.5t-16 41z" />
<glyph unicode="0" horiz-adv-x="923" d="M37 553q0 206 61 334q37 79 130 147.5t204 79.5q95 -4 178 -52.5t138 -124.5t86.5 -172t31.5 -194q0 -205 -94 -372q-107 -180 -303 -197q-111 -8 -208.5 54t-145.5 147q-78 153 -78 350zM219 557q0 -58 4 -104q6 -57 39.5 -132t87.5 -106q28 -20 76.5 -25.5t81.5 9.5 q85 40 128.5 123.5t45.5 189.5q0 123 -15 191.5t-55 123.5q-90 123 -190 109q-112 -17 -174 -168q-29 -67 -29 -211z" />
<glyph unicode="1" horiz-adv-x="573" d="M31 881q-4 33 24 61q104 69 142 94l82 54q40 20 81 20q74 0 91 -61v2q18 -42 18 -133q0 -155 -20 -437q-11 -262 -11 -276q0 -9 1 -44t1 -42v-13q0 -35 -14 -63q-18 -30 -34.5 -38.5t-41.5 -8.5t-41.5 6.5t-22.5 14t-18 24.5q-14 23 -14 158q0 19 1 52t1 46q4 151 8 221 v8q11 137 15 205q0 16 1 49t1 51v46q-30 -24 -54 -35q-73 -45 -112 -45q-36 0 -58 26.5t-26 57.5z" />
<glyph unicode="2" horiz-adv-x="784" d="M96 879q-52 62 29 139q31 29 99.5 59t142.5 31q75 0 131.5 -48.5t79.5 -105.5q22 -68 22 -118t-12 -136q-3 -21 -8 -43t-10 -40t-13.5 -42t-13.5 -38.5t-15.5 -39t-14.5 -33.5t-15 -34t-13 -29v2q-3 -8 -10 -23.5t-10 -23.5q-29 -70 -98 -168l127 9h32q80 4 131 -7h-2 q26 -6 42.5 -15.5t22.5 -23.5t7.5 -23.5t1.5 -27.5v-2q-2 -33 -16.5 -54.5t-55.5 -29.5q-34 -8 -116 0q-23 2 -101 2l-190 -18q-57 -3 -95 20t-38 68q-2 51 59 129l17 23q18 26 68 126.5t71 149.5q46 105 65 182q33 116 19 172q-7 37 -40 52t-69 4h2q-32 -8 -61 -37h2 l-12 -8q-24 -20 -68 -24t-74 24z" />
<glyph unicode="3" horiz-adv-x="854" d="M41 1020q9 72 98 78l381 2q41 -2 96 -2q98 -4 119 -70v2q19 -45 -14 -92l-209 -231q29 -5 74 -23q57 -28 108 -82q38 -46 61.5 -111.5t24.5 -134.5q0 -70 -13.5 -121.5t-51.5 -105.5q-46 -67 -113.5 -102.5t-185.5 -36.5q-75 -1 -145.5 31.5t-115.5 80t-72 97.5t-26 86 q5 39 16.5 56t47.5 24q60 16 104 -58q24 -50 78 -108q44 -41 119 -41q27 0 63 8q91 38 107 139q10 53 -9 118.5t-71 90.5q-52 18 -98 18q-32 0 -88 -14q-91 -32 -133 19q-28 37 -18 77t48 72q28 22 87 77.5t85 84.5q18 19 70 66q14 12 6 14h-59q-182 0 -256 -8 q-51 2 -86.5 27t-28.5 73z" />
<glyph unicode="4" horiz-adv-x="763" d="M25 340q-22 46 6 111l35 92v-2l110 311q49 146 55 160q5 15 45 88q28 40 103 16q37 -13 48.5 -42.5t6.5 -47.5l-196 -555l149 10l10 2q0 35 -2 41q-2 17 0.5 63.5t7.5 57.5q24 37 75.5 40t78.5 -26q21 -24 14 -170q40 5 68 5q39 3 68 -14t36 -52v2q16 -64 -34 -88h2 q-30 -21 -88 -23h-29h-12v-28q4 -196 0 -232q-5 -27 -27 -50t-53 -23q-38 0 -56 13.5t-32 49.5v-2l-15 176q-2 53 0 82q-6 -2 -26 -2l-193 -14q-58 -4 -91.5 3t-43.5 17t-20 31z" />
<glyph unicode="5" horiz-adv-x="739" d="M33 236q-6 72 76 90q38 8 66 -14.5t30 -39.5l2 -14q24 -78 129 -78q34 0 78 15q109 37 106 155q-3 67 -71 135q-37 30 -140 25h-8l-57 -8q-122 -18 -152 -6h2q-32 11 -40 26t-11 60l-6 102l16 367q16 38 137 43l293 12q55 2 83 -14t38 -60t-23 -75.5t-75 -26.5l-275 -15 l-4 -106v-125q8 1 26 2.5t36.5 3t36.5 2.5q156 10 265 -98.5t109 -257.5q0 -115 -65 -203q-98 -109 -247.5 -132t-260.5 69q-35 31 -63.5 83.5t-30.5 82.5z" />
<glyph unicode="6" horiz-adv-x="757" d="M20 449q6 105 33 200q12 53 43 124.5t68 129.5q34 55 83 102.5t77 59.5q113 58 161 -10q18 -29 16 -54t-13.5 -41.5t-30.5 -27.5q-85 -44 -140 -131q-23 -39 -59 -129q48 12 102 14q121 6 215.5 -65.5t120.5 -174.5q23 -84 7 -174.5t-66 -154.5q-103 -127 -281 -127 q-66 0 -124 28.5t-95.5 71t-60 82t-31.5 70.5v-2q-28 83 -25 209zM207 377q0 -79 37.5 -143t107.5 -70q58 -3 101.5 24.5t54.5 65.5l2 6q19 52 15 97.5t-36 86.5q-18 23 -40 37t-50 19t-38.5 5.5t-34.5 0.5q-60 0 -89.5 -35.5t-29.5 -93.5z" />
<glyph unicode="7" horiz-adv-x="716" d="M37 1024q3 31 22 51.5t47 26.5q27 6 76 6h60q32 0 393 -14q37 -13 53 -68q6 -25 3.5 -43.5t-7.5 -28.5q-5 -9 -37 -94.5t-39 -105.5l-22 -70l-17 -41h9q60 0 75 -68q9 -39 -16 -68.5t-66 -35.5q-40 -6 -67 -6l-35 -88l-20 -55q-10 -25 -26.5 -79t-33.5 -113.5t-18 -63.5 q-12 -47 -50.5 -65t-74.5 -9v-2q-31 7 -52.5 36t-9.5 74q8 56 111 349q-41 0 -64 2q-28 5 -46 17.5t-23.5 27.5t-8 31.5t0.5 29.5q2 24 25.5 46t49.5 22l138 8q13 34 28 80l74 207q-83 10 -141 8q-98 -4 -162 -4q-44 0 -72 9t-39 26.5t-14.5 31t-3.5 33.5z" />
<glyph unicode="8" horiz-adv-x="782" d="M27 236q-9 61 1.5 116.5t29 91.5t52 71t54 50.5t49.5 34.5q-22 19 -36.5 34t-36 44t-33.5 67.5t-13 83.5q-1 62 26 117t71 90t94.5 56.5t97.5 23.5q119 9 193 -50t104 -163q20 -82 -17.5 -155t-93.5 -127q150 -84 187 -259q13 -66 -2 -124.5t-47.5 -98.5t-76.5 -71 t-86.5 -47t-80.5 -21q-36 -4 -68 -4q-44 0 -86 6t-89.5 22t-85 42t-67 69.5t-40.5 100.5zM207 279q21 -122 219 -107q68 9 115 55t30 123q-21 110 -176 150q-11 -5 -29 -14.5t-50 -32.5t-57 -47.5t-41.5 -59t-10.5 -67.5zM266 799q29 -56 125 -92q22 -8 68.5 47.5t50.5 95.5 q4 33 -19 61t-81 31q-43 2 -82 -23t-56.5 -60t-5.5 -60z" />
<glyph unicode="9" horiz-adv-x="747" d="M23 733q0 70 19 131.5t52 100.5q48 59 112.5 93t164.5 34q89 0 158 -44t107 -114t56.5 -148t16.5 -155q-6 -98 -35 -201q-42 -146 -109 -252q-34 -55 -85.5 -104t-76.5 -58h3q-24 -10 -38 -14.5t-41.5 -9.5t-49 4t-35.5 31h2q-20 28 -16.5 53.5t17.5 43t34 28.5l12 4 l-15 -4q93 55 134 127q34 59 59 129q-49 -13 -102 -15q-122 -4 -216 67.5t-120 174.5v2q-8 41 -8 96zM203 735q0 -56 37 -98q42 -58 128.5 -63.5t133.5 42.5q18 18 18 93q0 51 -14 98v-2q-40 104 -131 113q-56 3 -97.5 -26t-62.5 -83l2 6q-14 -40 -14 -80z" />
<glyph unicode=":" horiz-adv-x="315" d="M33 246q23 65 108 69q37 2 73.5 -29t35.5 -83q-1 -56 -34.5 -83t-86.5 -22q-56 6 -85.5 47.5t-10.5 100.5zM37 678q20 65 104 74q38 3 75.5 -29t37.5 -86q-1 -52 -36 -78.5t-87 -23.5q-53 6 -83 47.5t-11 95.5z" />
<glyph unicode=";" horiz-adv-x="282" d="M12 150q-6 56 26.5 90t82.5 34q57 0 93 -36t36 -105v-24q1 -78 -43.5 -130.5t-91.5 -66.5q-38 -11 -63 -2.5t-25 33.5q0 12 24 54.5t39 57.5l2 13q-27 6 -52 27t-28 55zM29 629q18 68 104 73q38 3 75.5 -28t37.5 -82v-2q-1 -52 -36.5 -79.5t-88.5 -25.5q-52 6 -81.5 48.5 t-10.5 97.5v-2z" />
<glyph unicode="&#x3c;" horiz-adv-x="743" d="M21.5 516q2.5 35 31.5 59q11 10 113 89l67 51q23 18 93 67l41 29q9 7 29 22.5t26 20.5l102 68q2 2 11 7t24.5 9t31 3t32.5 -15t28 -41q6 -14 6.5 -28.5t-5.5 -29t-14 -27.5t-21.5 -27.5t-25 -25.5t-29 -24.5t-28 -21t-26.5 -19.5l-14 -10l-62 -45l-96 -74l-76 -61 q35 -35 55 -50l99 -75l55 -43l121 -103q47 -77 14 -115q-24 -31 -65 -37t-60 13q-16 8 -23 12.5t-12 10.5l-4 6l-12 12q-200 163 -233 192q-1 2 -8 7.5t-9 7.5q-121 94 -137 121q-22 30 -19.5 65z" />
<glyph unicode="=" horiz-adv-x="915" d="M53 408q-4 38 26.5 65.5t80.5 30.5l166 6q294 12 342 12q80 0 108.5 -29t26.5 -77q-5 -66 -105 -86l-551 -13q-45 0 -68.5 25.5t-25.5 65.5zM53 668q-5 39 26.5 68t80.5 30l250 8q190 10 258 10q80 0 108.5 -29t26.5 -77q-3 -38 -32.5 -59.5t-72.5 -26.5q-29 -4 -184 -4 l-205 -6h-16q-117 -5 -146 -2q-39 6 -66 29.5t-28 58.5z" />
<glyph unicode="&#x3e;" horiz-adv-x="696" d="M38.5 856q0.5 15 6.5 29q17 41 48.5 50t54.5 -2l22 -11l100 -66l60 -45l41 -29q62 -43 90 -67l67 -51q17 -14 43 -34t44.5 -34t25.5 -21q29 -24 32.5 -59t-18.5 -65q-20 -29 -141 -123l4 2q-3 -3 -10.5 -8t-9.5 -7l-230 -192l-12 -12q-3 -2 -6 -7t-10 -10t-23 -12 q-19 -19 -60.5 -13.5t-64.5 37.5q-34 38 12 115l123 103l54 43l100 75q28 21 55 50l-78 61l-94 74l-63 45q-5 4 -15 10q-16 12 -26.5 19.5t-28 21t-28.5 24t-24.5 25t-21 27.5t-13.5 27.5t-5.5 29.5z" />
<glyph unicode="?" horiz-adv-x="634" d="M63 918h3q-32 37 3.5 91t86.5 85q62 32 143 32q65 0 115 -26q52 -26 83 -53t62 -68q47 -64 47 -170q0 -43 -22 -113q-11 -34 -33 -65t-53.5 -57t-56 -43t-58.5 -37q-56 -36 -57 -39q-6 -15 -6.5 -21.5t2.5 -25.5q24 -126 -64 -150q-58 -17 -83.5 8t-37.5 74q-8 40 -8 92 q0 68 23 115l-2 -2q20 41 43.5 60.5t64.5 37.5l-2 -2q39 22 57.5 33t46.5 32t40.5 38t21 41.5t6.5 52.5q-7 44 -41.5 76t-71.5 32h-16h-10h-10t-9.5 -0.5t-10.5 -1t-9.5 -2t-11 -3.5t-11 -5t-13 -7t-13.5 -9q-88 -60 -138 0zM152 98q0 40 26 66q29 29 70 29q98 0 112 -78v2 q17 -62 -15.5 -93.5t-76.5 -31.5q-31 0 -52.5 10t-47.5 35q-16 19 -16 61z" />
<glyph unicode="@" horiz-adv-x="868" d="M53 518q4 41 18 86.5t44.5 97t72.5 93t107 73t143 39.5q104 10 197.5 -47.5t130.5 -142.5q26 -61 25.5 -127.5t-25.5 -112.5q-22 -39 -59 -66.5t-78 -27.5q-45 0 -76 25q-44 -79 -100.5 -104t-116.5 9q-49 26 -73 102.5t7 155.5q18 45 69 85t114 40q21 0 39 -6 q17 -4 49 -24.5t47 -44.5q12 -23 16 -70q5 -47 19 -53q8 -3 15.5 -2t18.5 12q28 32 25 86q0 59 -53 127q-25 30 -79.5 54t-111.5 24q-14 0 -71 -15q-84 -23 -140.5 -113t-56.5 -202q15 -178 98 -233q67 -38 151 -37t142 32q18 10 36 24.5t28 23t21.5 14.5t21.5 4t22 -12 q17 -14 17.5 -31.5t-11 -32.5t-25.5 -28.5t-26 -20.5l-12 -8q-97 -75 -225 -72q-180 7 -261 111q-56 70 -79.5 142t-14.5 173zM368 459.5q4 -33.5 23 -43.5q23 -9 45.5 -2t37.5 28.5t23 44.5t1.5 45.5t-27.5 32.5q-27 11 -57.5 -8.5t-40.5 -44.5q-9 -19 -5 -52.5z" />
<glyph unicode="A" horiz-adv-x="819" d="M25 98q9 50 122 488l56 200q17 57 45.5 162t32.5 119q22 52 100 59h7q32 0 63 -26q34 -29 43 -58l22 -75l66 -242l59 -197v2l64 -194q1 -1 11 -26.5t20 -52.5t12 -30q28 -57 32 -75l-2 2l6 -17q0 -1 3 -10.5t3.5 -12.5t2.5 -11.5t2 -12.5v-11.5t-1.5 -13t-4.5 -12 t-7 -12.5q-38 -47 -82 -47q-30 0 -77 51l2 -2q-16 22 -50 129v-2l-67 166l-39 104h-84l-92 -8l-10 -41l-80 -307q-9 -50 -58 -76q-27 -14 -48 -14q-18 0 -34 10h3q-44 29 -44 72q0 11 3 22zM322 596l124 8l-12 39q-29 74 -44 130t-17 72t-4 15q-3 1 -14 -58.5t-21.5 -124.5 t-11.5 -81z" />
<glyph unicode="B" horiz-adv-x="755" d="M82 633q0 409 16 440v-2q19 24 53.5 37t58.5 14.5t64 1.5q78 0 136 -12q49 -13 116 -45q70 -39 103 -92h-2q37 -52 43 -123q1 -13 1 -25q0 -101 -65 -196q-27 -38 -57 -60q52 -33 94 -77q62 -71 78 -170v-2q2 -20 2 -38q0 -49 -14 -85q-19 -57 -58 -103q-53 -56 -123 -82 q-69 -28 -155 -28q-83 0 -137 20q-17 -10 -41 -10q-38 0 -62 24q-16 13 -27 39l-16 64zM260 645q27 -2 61 3.5t69.5 19.5t63 43.5t35.5 68.5q3 17 3 32q0 44 -24 72q-32 36 -87 48q-52 10 -80 10q-35 0 -41 -2v-295zM266 387q2 -59 6 -132q3 -57 2 -72v-5h-2q0 -2 2 0 q15 -11 72 -11q13 0 29 1q96 3 135 45q30 28 30 88q0 13 -1 27q-23 80 -103 110q-54 20 -102 26q-19 3 -34 3q-22 0 -32 -6q-3 -10 -3 -40q0 -14 1 -34z" />
<glyph unicode="C" horiz-adv-x="737" d="M39 473q-1 28 -1 55q0 108 19 209v-2q18 123 84 248q33 59 100.5 112t137.5 66q15 2 30 2q68 0 148 -37l12 -8q33 -21 77 -80q38 -52 39 -81q0 -4 -1 -7q-8 -44 -48 -58q-11 -4 -24 -5q-32 0 -71 26h2q-32 19 -37 27h2q-43 37 -76 37q-20 0 -47 -12q-38 -19 -63 -45 t-34 -44.5t-18 -46.5q-38 -116 -45 -180q-8 -52 -8 -112q0 -28 4 -86q5 -50 21.5 -106t38.5 -91q27 -40 46.5 -60t43.5 -26q19 -6 37 -6q46 0 81 39h-2l21 24l14 27q26 39 70 39q33 0 51 -15q15 -7 27 -30q11 -19 11 -41q0 -19 -9 -39q-11 -26 -39 -66q-99 -111 -246 -114 q-52 0 -100.5 23t-71.5 46l-8 8l-11 11t-13 13.5t-15 17t-15.5 19t-16.5 23t-15.5 25t-16 28.5t-14.5 31q-21 49 -31.5 90.5t-13 67t-6.5 84.5z" />
<glyph unicode="D" horiz-adv-x="755" d="M78 791v272q16 49 94 49q48 0 83 -10.5t91 -36.5q44 -17 100 -63t86 -80q103 -109 142 -240v2q35 -98 35 -209q0 -57 -4 -82q-5 -42 -35 -137q-26 -69 -62 -121q-58 -79 -139 -123q-69 -37 -159 -41q-12 -1 -24 -1q-75 0 -134 22q-38 25 -48 42q-14 22 -14 50v342 q-3 30 -8 115q0 176 -4 250zM252 901q10 -215 10 -375q4 -270 4 -372q8 -2 27 -2q92 0 156 77q15 22 31 51q14 28 32 94q14 54 15 110q0 13 -1 26q-9 104 -35.5 169.5t-84.5 129.5q-66 66 -154 92z" />
<glyph unicode="E" horiz-adv-x="817" d="M82 268q0 77 1 160t1 92q0 72 1 126.5t1 58.5q0 31 1 92t1 92v67q0 34 0.5 52.5t2.5 45t7.5 41.5t14.5 21q22 12 211 12q54 0 148 -1t116 -1h39q89 0 98 -67q1 -7 1 -13q0 -28 -12 -50q-14 -26 -42 -38q-38 -16 -119 -16h-27q-136 -8 -243 -8l-7 -207q-1 -24 -2 -42.5 t-1.5 -26.5t-0.5 -11q23 0 97 -4q269 -10 272 -10q65 -8 86 -72q6 -27 -14 -56t-72 -36q-63 -8 -121 -8q-225 10 -248 10v-2q-1 -39 -2 -149t-2 -142q139 0 199 6h72q8 0 31 -0.5t34.5 -1t32 -2.5t32 -6t25 -11t21 -18t10.5 -26q1 -7 1 -14q0 -32 -30 -56q-36 -29 -86 -39 q-35 -7 -67 -7q-13 0 -25 1l-430 -4q-4 28 -6 110q-1 61 -1 119q1 20 1 39z" />
<glyph unicode="F" horiz-adv-x="788" d="M80 1071q4 25 29.5 39t48.5 15l24 1q44 -1 124 -4.5t145.5 -5.5t123.5 -2l107 -4q31 -5 49 -20t29 -52v-2q3 -11 3 -22q0 -32 -27 -56q-36 -32 -99 -32q-38 0 -332 12q-30 2 -31 2q0 -4 0.5 -22t1 -66t0.5 -125l-2 -55h91q18 0 36 -1q55 0 117 5h-2q37 2 59.5 2t30.5 -2 q21 -5 42 -26t24 -48q1 -6 1 -12q0 -30 -20 -60q-30 -32 -71 -34l-13 -2q-33 -6 -73.5 -8.5t-69.5 -2.5t-77.5 1t-69.5 1q2 -29 2 -82v-340q-3 -33 -17 -48.5t-55 -24.5q-11 -2 -21 -2q-30 0 -55 18q-33 24 -37 72q-1 16 -1 40.5t0.5 66.5t0.5 73q-14 284 -14 636v89 q-3 47 -3 71q0 11 1 17z" />
<glyph unicode="G" horiz-adv-x="972" d="M49 446q-3 44 -3 85q0 229 95 372q68 96 157 159.5t194 63.5q30 0 58 -3t47 -7t39.5 -10.5t30.5 -10.5t24.5 -10.5t17.5 -7.5q18 -8 36 -32.5t23 -56.5q1 -5 1 -10q0 -26 -21 -48q-8 -9 -16 -15t-18.5 -8t-17 -3.5t-21 1t-19 3.5t-23 6t-21.5 6q-43 12 -83 12 q-116 0 -205 -107q-37 -47 -59 -106t-27 -91t-9 -83q0 -55 2.5 -91t12.5 -84.5t34.5 -86.5t63.5 -66q67 -49 139 -49q49 0 97 22q65 31 88.5 87.5t25.5 144.5v22q-91 -26 -127 -26q-48 0 -77 20q-27 18 -27 49v7q3 58 65.5 96.5t235.5 68.5l82 15q85 0 100 -64q4 -11 4 -21 q0 -49 -84 -87q0 -6 2 -31t2.5 -33t1.5 -30t1 -32.5t-0.5 -29.5t-2.5 -32t-5 -30t-7 -32q-16 -47 -41.5 -88t-67 -81t-106.5 -63.5t-145 -23.5q-200 0 -316 117t-131 333z" />
<glyph unicode="H" horiz-adv-x="868" d="M82 705q0 65 4 166t4 124v21q0 3 0.5 8t4.5 19t11.5 24.5t23.5 20.5t38 12h11q63 0 87 -56q11 -28 11 -86q0 -17 -1 -36q0 -46 -4 -137t-4 -132l336 -2q2 364 6 393q5 40 31 68.5t64 28.5q37 0 60 -28.5t23 -74.5q0 -63 -2 -139l-8 -788q0 -49 -31.5 -71t-54.5 -22 q-36 0 -66 27.5t-30 93.5v342l-133 -4h-191v-28q0 -169 4 -216q1 -20 5 -82t4 -79q-1 -36 -31 -64q-32 -28 -61 -28h-5q-30 0 -56 24q-30 26 -30 72l-8 258l-10 291z" />
<glyph unicode="I" horiz-adv-x="370" d="M90 514q0 68 6 162l6 194q0 4 -0.5 20t-0.5 38t1 49q1 31 1.5 45.5t3.5 35.5t9 30t17 19t27.5 13.5t40.5 3.5q19 0 33.5 -6t23 -20t13.5 -24t7.5 -32.5t3 -30t1.5 -30.5v-119q0 -40 1 -70q0 -61 -1 -85q-3 -177 -3 -364q0 -93 1 -189v2q1 -7 2 -18t-1.5 -39t-11.5 -50 t-33 -39.5t-61 -17.5q-26 0 -43 12t-24 34t-9 39.5t-2 43.5q-8 81 -8 393z" />
<glyph unicode="J" horiz-adv-x="858" d="M32 270q3 47 19 76q28 41 75 41h11q35 -4 54 -30.5t25.5 -60.5t14 -67t29.5 -54q18 -18 47 -18q6 0 12 1q18 2 31.5 17.5t21.5 47.5t13 60.5t7.5 80t3 80.5t1.5 86q0 82 2 115q4 61 4 156q0 100 -2 127q-129 -6 -178 -6q-55 0 -67 4q-40 14 -54 31t-14 55t32 64t70 26 q119 0 295 12l228 12q25 0 45 -2q23 -2 50 -34q24 -27 24 -59q0 -4 -1 -9v-2q-2 -17 -9.5 -30.5t-20 -21.5t-25 -13t-31 -7t-30.5 -3t-32 -1.5t-28 -1.5q-19 -1 -34.5 -2.5t-23 -2.5t-9.5 -1l-6 -387q-2 -172 -13.5 -274.5t-40.5 -163.5q-37 -74 -86 -102q-47 -27 -144 -27 h-7q-60 2 -103 18.5t-58.5 31.5t-31.5 38q-43 49 -59 120q-7 26 -7 60v20z" />
<glyph unicode="K" horiz-adv-x="870" d="M76 1042q3 38 25.5 60t76.5 22q87 0 95 -159q0 -10 1 -27v-8q0 -28 1 -123t1 -100q77 62 119 104q52 50 156 158q11 10 26 25.5t27 28.5t27 27.5t29.5 24.5t31 16.5t35.5 6.5t39 -8q28 -11 38 -25.5t15 -42.5q1 -8 1 -15q0 -35 -23 -67l-238 -231q-10 -11 -25 -24.5 t-22 -20.5q9 -19 32 -55.5t27 -43.5q9 -17 30.5 -50t58.5 -87t55 -82h-2q116 -171 118 -184q26 -49 26 -85q0 -40 -34 -61q-24 -19 -56 -19q-9 0 -21 2q-46 8 -74 44q-24 28 -80.5 113.5t-71.5 115.5l-158 263l-79 -56l4 -205q0 -167 -8 -217q-6 -31 -29.5 -58.5 t-67.5 -27.5q-35 0 -60.5 27t-29.5 72q-2 20 -2 47.5t2 62.5q1 20 1 54q0 118 -11 399q-9 230 -9 333q0 59 3 76z" />
<glyph unicode="L" horiz-adv-x="739" d="M72 297l4 164v22q3 93 5 170.5t3.5 115.5t2 65.5t1 37.5t0.5 15q0 31 -2.5 74.5t-3 61t3.5 50.5q3 13 7 22t13 20.5t27.5 18.5t44.5 9q29 1 48.5 -10t28.5 -32t12.5 -39t4.5 -40v-29q0 -67 -4 -276l-2 -82q-6 -183 -6 -234v-65l4 -158q8 -2 92 -2q75 0 170 10l45 4 q12 1 24 1q34 0 58 -11q32 -15 39 -47q5 -21 5.5 -42.5t-16 -42t-48.5 -28.5h2q-34 -12 -130 -19t-140 -7q-55 0 -80.5 0.5t-62.5 4.5t-56 12t-38.5 23.5t-31.5 39.5q-24 47 -24 223z" />
<glyph unicode="M" horiz-adv-x="995" d="M78 100q0 105 3 509.5t7 430.5q7 42 38.5 64t68.5 24h11q34 0 55 -11q24 -13 44 -56l154 -336l33 -66l81 154q122 229 129 246q9 22 36 42t65 23q58 0 78 -32t24 -88q6 -74 6 -908v-10q1 -40 -13 -64q-16 -28 -60 -34q-12 -2 -23 -2q-37 0 -61 23q-29 27 -29 67v8l-4 594 q-88 -160 -123 -215q-13 -23 -24.5 -37.5t-37.5 -28t-59 -12.5q-31 2 -55.5 20.5t-56.5 65.5v-2q-14 18 -125 262q15 -64 23.5 -225t9.5 -248t1 -141q0 -77 -49 -113q-28 -21 -55 -21l-43 12q-49 28 -49 105z" />
<glyph unicode="N" horiz-adv-x="921" d="M82 1071q1 6 4 14.5t21.5 25.5t46.5 22q10 2 20 2q58 0 109 -72l65 -100q84 -136 157.5 -262t104.5 -184l31 -58q-16 172 -16 569q0 104 80 117q14 2 26 2q29 0 47 -13q24 -18 39 -63q6 -27 10 -162q0 -86 2 -216.5t2 -184.5q4 -350 7 -391q0 -3 0.5 -15t0.5 -18.5 t-2.5 -17t-7.5 -19.5q-8 -14 -14.5 -22.5t-23.5 -15.5t-43 -7q-35 2 -55.5 11t-43.5 34q-17 28 -213 391l-55 111q-70 126 -115 201q0 -93 4 -175l2 -92q0 -401 -10 -430q-8 -19 -14.5 -30t-26 -22t-47.5 -11q-51 0 -68.5 23.5t-19.5 60.5v86q2 156 2 301.5t-2 281.5 q0 48 -0.5 98.5t-1 83.5t-0.5 38q-2 33 -2 108z" />
<glyph unicode="O" horiz-adv-x="974" d="M45 565q3 83 22.5 163t56 153t87 130t119.5 94t149 44h13q106 0 196 -48q96 -51 148 -145q29 -52 44 -89t27.5 -115.5t12.5 -188.5q0 -111 -24.5 -212.5t-73.5 -187t-133.5 -137.5t-194.5 -53h-18q-96 0 -168 29q-79 32 -140 115q-58 75 -92 199q-31 112 -31 223v26z M248 647q-15 -66 -14 -130q0 -130 61 -249v2q34 -58 77 -86q38 -24 97 -24h18q95 1 149.5 66.5t80.5 187.5q24 101 24.5 192.5t-24.5 173.5q-23 76 -69 116.5t-124 55.5q-11 1 -22 1q-42 0 -80 -19q-48 -24 -81 -70.5t-56 -100.5t-37 -116z" />
<glyph unicode="P" horiz-adv-x="759" d="M84 602v98q2 88 2 287q-2 26 -2 48t2 39q4 34 23 46q20 10 39 12q13 1 46 1h39q10 0 40.5 -1.5t50.5 -1.5q55 -1 101 -10.5t73.5 -20.5t54.5 -33t36.5 -32t28.5 -33v-2q38 -46 61.5 -106.5t27.5 -167.5v-13q0 -62 -27 -122q-30 -66 -78 -112.5t-102 -78t-103 -41.5 q-41 -7 -114 -12l2 -47q4 -110 4 -188l-4 -70q-11 -28 -28.5 -40t-49.5 -9q-47 3 -76.5 36.5t-32.5 80.5zM270 590q0 -68 2 -74q58 7 109 27q18 7 24 9.5t29 14.5t35 24.5t28.5 31.5t24.5 45t8 57v6q0 57 -17 99q-18 44 -44 67t-63 36t-62.5 16t-54.5 3h-19l4 -127z" />
<glyph unicode="Q" horiz-adv-x="958" d="M44 644q26 150 97 280q55 82 121 137t140 81q44 16 91 16q32 0 64 -7q82 -17 160 -80q73 -65 121 -190q43 -102 50 -225q3 -33 3 -65q0 -87 -15 -167q-20 -111 -61 -219l62 -66q33 -41 33 -77q0 -24 -15 -46q-24 -38 -65 -42h-11q-35 0 -61 24l-60 53q-126 -71 -239 -71 q-23 0 -45 2q-132 18 -229 115.5t-134 246.5q-19 84 -19 168q0 66 12 132zM229 440q6 -77 29.5 -137.5t76 -98.5t128.5 -38q47 0 100 16l-2 4q-8 7 -20 21l-113 133q-13 19 -22.5 41.5t-10 53.5t20.5 52v-2q22 22 54 23.5t56.5 -9.5t34.5 -24l105 -121q26 82 34 168 q4 32 4 64q0 55 -10 110q-14 89 -53 158q-62 114 -156 117h-4q-51 0 -85 -27q-35 -27 -72 -86q-31 -49 -54 -118.5t-35 -146.5q-8 -51 -8 -102q0 -26 2 -51zM657 334l9 20l-9 -18v-2z" />
<glyph unicode="R" horiz-adv-x="759" d="M72 999q1 35 4.5 55t18.5 42t44 30q104 17 226 23q66 -3 133 -47v2q56 -34 98 -95t61 -130q11 -80 11 -84q0 -34 -11 -76v6q-2 -2 -2 -4q-19 -82 -71 -162q-7 -10 -18.5 -22.5t-19.5 -19.5l-7 -7q39 -80 92 -197l53 -112q31 -50 31 -103q0 -61 -56 -98q-23 -13 -40 -15 t-31.5 9.5t-21.5 21t-21 31.5l-21 35v-2q-23 33 -135 276l2 -2q-8 16 -18.5 44t-18.5 44q-74 -8 -80 -8v-24q-1 -86 -1 -148t0.5 -102t0.5 -49q0 -83 -8 -93q-19 -30 -61 -30q-11 1 -36.5 -0.5t-52 14.5t-26.5 47q0 14 -4 68q-2 93 -2 372v205l-6 133q-6 117 -6 157v15z M268 954q6 -119 11 -323q85 5 122 24q30 15 53 73q18 46 18 86q0 10 -1 20q-7 53 -20.5 81.5t-44.5 38.5q-24 7 -60 7q-43 0 -78 -7z" />
<glyph unicode="S" horiz-adv-x="849" d="M35 152q1 42 33 74q23 23 51 24q11 0 24 -4v2q34 -12 80.5 -38t87.5 -42t86 -16q65 0 115 30q62 43 80 96q9 26 9 50t-10 48q-19 46 -64 83.5t-105 52.5h2q-62 15 -80 19.5t-56.5 17.5t-63.5 28.5t-54 40.5q-42 34 -68 95.5t-26 128.5q0 66 30 131q99 178 304 188h15 q79 -1 171 -39q100 -42 125 -80q25 -25 31.5 -56.5t-20.5 -57t-91 -25.5q-19 0 -63 23q-69 28 -117 37h2q-10 1 -20 1q-37 0 -71 -14q-44 -18 -66 -50q-20 -32 -24 -66q0 -3 -1 -6q0 -31 29 -61q32 -33 96 -50q158 -46 209 -68q130 -58 166 -163q17 -49 18 -113 q0 -28 -4 -58q-6 -61 -31 -116t-59 -93t-66.5 -63t-60.5 -37q-108 -45 -209 -45q-75 0 -148 29q-79 36 -132.5 82t-53.5 80z" />
<glyph unicode="T" horiz-adv-x="768" d="M10 1053q12 73 101 73h174l323 -2q66 -3 95.5 -31t29.5 -67q0 -33 -22.5 -56.5t-57.5 -29.5l-100 -6q-30 -2 -45.5 -2t-18.5 2l7 -158l2 -334q-4 -256 -9 -342q-4 -50 -33 -77t-59 -29q-29 2 -49 14.5t-30 28t-15.5 42t-6.5 44t-1 47.5l4 117v-2l12 393q0 188 -6 256 l-172 4q-65 0 -97 36q-27 29 -27 64q0 7 1 15z" />
<glyph unicode="U" horiz-adv-x="925" d="M82 776v41q0 183 16 253q18 78 82 79q74 0 100 -43q19 -32 19 -100q0 -24 -2 -52l-14 -292q-1 -19 -1 -40q0 -103 21 -243q32 -208 170 -211h3q56 0 92 34q36 36 61 113q14 63 14 299l-2 242q-1 26 -1.5 41t0 49.5t3.5 57t10.5 52t19 47t31 30t44.5 12.5q45 0 66 -35 t32 -100l4 -154q0 -138 -6 -308t-13 -233q-9 -53 -27.5 -101.5t-53 -100t-94.5 -88t-138 -48.5q-33 -5 -65 -5q-47 0 -89 12q-72 20 -121 63t-81 100.5t-43 124.5q-24 141 -30.5 231.5t-6.5 272.5z" />
<glyph unicode="V" horiz-adv-x="833" d="M43 983q-6 17 -6 35q0 22 8 46q15 44 53 52q26 6 46 6q22 0 36 -8q27 -14 39 -45l49 -156l39 -122q51 -181 74 -263q21 -71 29 -102l8 -29q12 37 39 135q12 42 38 145.5t48 186.5l35 142v-2q20 86 26 98v-2q10 27 59 42q19 6 36 6q27 0 49 -15q32 -22 39 -52.5t-1 -54.5 l-71 -287l-56 -204q-124 -425 -143 -472q-14 -33 -42 -54t-64 -21q-41 0 -63.5 23t-39.5 65l-110 393z" />
<glyph unicode="W" horiz-adv-x="1273" d="M33 1042q0 43 18 65.5t62 29.5q8 1 15 1q32 0 58 -16q32 -20 39 -45q4 -13 14 -49.5t23.5 -88.5t22.5 -85l39 -156q86 -343 100 -379q31 47 66.5 129.5t54.5 135.5q20 61 98 67h8q35 1 57 -23q26 -26 37 -57q11 -33 21 -62t16.5 -49t12 -37t9 -27.5l6.5 -19.5l4.5 -13.5 t2.5 -8t2 -5t2 -3.5l74 279q128 420 143 448q18 39 44 52q12 6 31 6q20 0 46 -7q25 -9 38.5 -27.5t15 -40t0 -36t-4.5 -25.5v-2q-5 -15 -43 -139.5t-82 -276t-51 -190.5q-72 -262 -78 -285q-20 -58 -43 -80q-22 -21 -53 -26q-30 -5 -52.5 6.5t-33.5 26t-31 47.5l-10 16v-2 q-67 113 -94 211l-6 14l-131 -262q-14 -26 -42 -45q-22 -15 -50 -15q-7 0 -15 1q-80 8 -100 112v-2q-12 41 -37.5 124t-36.5 124l-55 178q-26 89 -78.5 292t-52.5 220z" />
<glyph unicode="X" horiz-adv-x="870" d="M24.5 1065q2.5 39 30.5 61q22 16 47 16q8 0 15 -2q33 -6 60 -24t46 -43l158 -242l25 58l65 147q59 122 92 135q25 11 48 11q17 0 32 -6q33 -13 49 -53q9 -21 9 -39q0 -16 -7 -29l-24 -54l-45 -100q-8 -17 -21.5 -45.5t-41.5 -88.5t-47 -99.5t-19 -38.5q325 -489 325 -490 q17 -30 17 -59q0 -12 -2 -24q-10 -40 -41 -56q-26 -12 -42.5 -12t-52.5 16q-28 13 -58 53.5t-107 165.5l-129 199l-156 -363q-28 -43 -52 -61q-18 -12 -42 -12q-10 0 -21 2q-41 8 -58 42q-10 20 -10 41q0 15 5 31l215 519q-20 29 -69.5 110.5t-57.5 93.5q-98 131 -125 179 q-13 22 -10.5 61z" />
<glyph unicode="Y" horiz-adv-x="796" d="M35 1074q10 39 45 52q14 5 30 5q19 0 40 -8q38 -15 63 -50q28 -39 76 -121l61 -108q69 -128 72 -129q3 36 70.5 201t89.5 202q28 38 78 38q8 0 16 -1q31 -4 51 -27t23 -51v-6q0 -20 -14 -67q-18 -56 -40 -103l-28 -61l2 2q-158 -330 -158 -367l10 -287q2 -57 2 -94 q0 -47 -15.5 -70t-66.5 -30q-8 -1 -16 -1q-55 0 -80 52l2 -2q-14 27 -20 111q-2 87 -3 175t-1.5 124.5t-1.5 48.5l-150 272l-125 225q-15 24 -15 50q0 12 3 25z" />
<glyph unicode="Z" horiz-adv-x="821" d="M43 76q-4 12 -4 26q0 33 24 74v2l87 156q34 60 34 61q6 11 73.5 139t134 250.5t87.5 155.5q-57 2 -168 2q-57 0 -129 6q-70 8 -90 48q-11 23 -11 45q0 18 7 36v-2q20 51 100 51h15h116h293q41 -1 65.5 -6.5t36.5 -20.5t15 -24.5t8 -36.5q1 -8 1 -16q0 -34 -25 -66 l-15 -22h2q-7 -11 -107.5 -198.5t-197.5 -370.5q-96 -181 -96 -183q0 -4 83 -8q18 -1 42 0h52q56 2 83 2q9 1 33.5 3t33.5 2t33 -1q73 -5 97 -43q12 -14 12 -37q0 -20 -10 -47q-23 -55 -90 -55h-252q-4 0 -25.5 1t-38.5 1q-138 5 -172 8q-66 5 -95 19t-42 49z" />
<glyph unicode="[" horiz-adv-x="485" d="M51 881q0 135 10 180q15 71 103 86q37 6 147 -2q39 -1 62.5 -23.5t29.5 -58.5q3 -29 -8.5 -53.5t-36.5 -34.5q-10 -4 -37.5 -7.5t-50.5 -5.5l-22 -1q0 -132 -5 -414t-5 -414q0 1 13 0q4 0 7 -0.5t9 -1t12 -0.5q46 -2 69.5 -14t28.5 -51q13 -76 -72 -97h2q-31 -8 -106 -8 h-11q-30 0 -43.5 0.5t-36 9t-34.5 25.5q-30 38 -23 84q0 37 2 53q10 176 -4 748z" />
<glyph unicode="\" horiz-adv-x="667" d="M34.5 1016.5q-2.5 23.5 16 50t55.5 39.5q21 6 39.5 7.5t39.5 -17.5t40 -62l148 -321q1 -3 5 -14t9.5 -25.5t11.5 -28.5l84 -201q10 -31 66 -138.5t69 -127.5q6 -11 10 -28.5t4 -41t-15 -44.5t-46 -31q-42 -9 -67 -3.5t-36 17.5l-11 12v2q-49 93 -70 138l2 -2 q-17 28 -45 100l-178 405q-20 44 -61.5 135.5t-61.5 135.5q-6 20 -8.5 43.5z" />
<glyph unicode="]" horiz-adv-x="446" d="M59 60q-1 18 17 57q25 37 119 33h34q-28 330 -10 829q-6 -1 -13.5 -2.5t-27 -4t-20.5 0.5q-14 2 -29 7.5t-32 26.5t-17 54q0 85 98 90q30 2 89.5 -2t76.5 -8q20 -1 32 -12.5t15 -23t6 -30.5l4 -624v-109q0 -5 1 -14t2 -22.5t2 -24.5q0 -8 3.5 -50.5t4.5 -68.5t0 -63 t-8.5 -62.5t-20.5 -38.5q-33 -35 -180 -35q-99 0 -131 55v-2q-14 26 -15 44z" />
<glyph unicode="^" horiz-adv-x="489" d="M49 1292q6 27 146 176q9 11 28 26t31 15q8 0 26.5 -14.5t33.5 -28.5l14 -14q103 -122 106 -127q34 -77 -16 -119q-23 -17 -46 -18.5t-44 13.5t-35 29t-33 38l-4 2l-16 20q-52 -56 -76 -73t-41 -17q-40 0 -59.5 27.5t-14.5 64.5z" />
<glyph unicode="_" horiz-adv-x="710" d="M102 -37q2 41 39 57q13 6 305 27q58 4 86 4h9t21 -3.5t28 -10t25.5 -21t17.5 -34.5q11 -51 -12.5 -80t-63.5 -29q-47 0 -76 -2l-264 -29q-31 0 -53 15q-19 7 -37 32q-30 38 -25 74z" />
<glyph unicode="`" horiz-adv-x="423" d="M26.5 1110.5q-0.5 14.5 9.5 30t32 28.5q32 12 71 -0.5t60 -33.5l133 -125l39 -64v2q10 -32 -1.5 -61.5t-29.5 -44.5q-35 -32 -70 -25l-75 64h2q-109 101 -138 136t-32 62q0 17 -0.5 31.5z" />
<glyph unicode="a" horiz-adv-x="819" d="M25 98q9 50 122 488l56 200q17 57 45.5 162t32.5 119q22 52 100 59h7q32 0 63 -26q34 -29 43 -58l22 -75l66 -242l59 -197v2l64 -194q1 -1 11 -26.5t20 -52.5t12 -30q28 -57 32 -75l-2 2l6 -17q0 -1 3 -10.5t3.5 -12.5t2.5 -11.5t2 -12.5v-11.5t-1.5 -13t-4.5 -12 t-7 -12.5q-38 -47 -82 -47q-30 0 -77 51l2 -2q-16 22 -50 129v-2l-67 166l-39 104h-84l-92 -8l-10 -41l-80 -307q-9 -50 -58 -76q-27 -14 -48 -14q-18 0 -34 10h3q-44 29 -44 72q0 11 3 22zM322 596l124 8l-12 39q-29 74 -44 130t-17 72t-4 15q-3 1 -14 -58.5t-21.5 -124.5 t-11.5 -81z" />
<glyph unicode="b" horiz-adv-x="755" d="M82 633q0 409 16 440v-2q19 24 53.5 37t58.5 14.5t64 1.5q78 0 136 -12q49 -13 116 -45q70 -39 103 -92h-2q37 -52 43 -123q1 -13 1 -25q0 -101 -65 -196q-27 -38 -57 -60q52 -33 94 -77q62 -71 78 -170v-2q2 -20 2 -38q0 -49 -14 -85q-19 -57 -58 -103q-53 -56 -123 -82 q-69 -28 -155 -28q-83 0 -137 20q-17 -10 -41 -10q-38 0 -62 24q-16 13 -27 39l-16 64zM260 645q27 -2 61 3.5t69.5 19.5t63 43.5t35.5 68.5q3 17 3 32q0 44 -24 72q-32 36 -87 48q-52 10 -80 10q-35 0 -41 -2v-295zM266 387q2 -59 6 -132q3 -57 2 -72v-5h-2q0 -2 2 0 q15 -11 72 -11q13 0 29 1q96 3 135 45q30 28 30 88q0 13 -1 27q-23 80 -103 110q-54 20 -102 26q-19 3 -34 3q-22 0 -32 -6q-3 -10 -3 -40q0 -14 1 -34z" />
<glyph unicode="c" horiz-adv-x="737" d="M39 473q-1 28 -1 55q0 108 19 209v-2q18 123 84 248q33 59 100.5 112t137.5 66q15 2 30 2q68 0 148 -37l12 -8q33 -21 77 -80q38 -52 39 -81q0 -4 -1 -7q-8 -44 -48 -58q-11 -4 -24 -5q-32 0 -71 26h2q-32 19 -37 27h2q-43 37 -76 37q-20 0 -47 -12q-38 -19 -63 -45 t-34 -44.5t-18 -46.5q-38 -116 -45 -180q-8 -52 -8 -112q0 -28 4 -86q5 -50 21.5 -106t38.5 -91q27 -40 46.5 -60t43.5 -26q19 -6 37 -6q46 0 81 39h-2l21 24l14 27q26 39 70 39q33 0 51 -15q15 -7 27 -30q11 -19 11 -41q0 -19 -9 -39q-11 -26 -39 -66q-99 -111 -246 -114 q-52 0 -100.5 23t-71.5 46l-8 8l-11 11t-13 13.5t-15 17t-15.5 19t-16.5 23t-15.5 25t-16 28.5t-14.5 31q-21 49 -31.5 90.5t-13 67t-6.5 84.5z" />
<glyph unicode="d" horiz-adv-x="755" d="M78 791v272q16 49 94 49q48 0 83 -10.5t91 -36.5q44 -17 100 -63t86 -80q103 -109 142 -240v2q35 -98 35 -209q0 -57 -4 -82q-5 -42 -35 -137q-26 -69 -62 -121q-58 -79 -139 -123q-69 -37 -159 -41q-12 -1 -24 -1q-75 0 -134 22q-38 25 -48 42q-14 22 -14 50v342 q-3 30 -8 115q0 176 -4 250zM252 901q10 -215 10 -375q4 -270 4 -372q8 -2 27 -2q92 0 156 77q15 22 31 51q14 28 32 94q14 54 15 110q0 13 -1 26q-9 104 -35.5 169.5t-84.5 129.5q-66 66 -154 92z" />
<glyph unicode="e" horiz-adv-x="817" d="M82 268q0 77 1 160t1 92q0 72 1 126.5t1 58.5q0 31 1 92t1 92v67q0 34 0.5 52.5t2.5 45t7.5 41.5t14.5 21q22 12 211 12q54 0 148 -1t116 -1h39q89 0 98 -67q1 -7 1 -13q0 -28 -12 -50q-14 -26 -42 -38q-38 -16 -119 -16h-27q-136 -8 -243 -8l-7 -207q-1 -24 -2 -42.5 t-1.5 -26.5t-0.5 -11q23 0 97 -4q269 -10 272 -10q65 -8 86 -72q6 -27 -14 -56t-72 -36q-63 -8 -121 -8q-225 10 -248 10v-2q-1 -39 -2 -149t-2 -142q139 0 199 6h72q8 0 31 -0.5t34.5 -1t32 -2.5t32 -6t25 -11t21 -18t10.5 -26q1 -7 1 -14q0 -32 -30 -56q-36 -29 -86 -39 q-35 -7 -67 -7q-13 0 -25 1l-430 -4q-4 28 -6 110q-1 61 -1 119q1 20 1 39z" />
<glyph unicode="f" horiz-adv-x="788" d="M80 1071q4 25 29.5 39t48.5 15l24 1q44 -1 124 -4.5t145.5 -5.5t123.5 -2l107 -4q31 -5 49 -20t29 -52v-2q3 -11 3 -22q0 -31 -27 -56q-36 -32 -99 -32q-38 0 -332 12q-30 2 -31 2q0 -4 0.5 -22t1 -66t0.5 -125l-2 -55h91h36q55 0 117 4h-2q37 2 59.5 2t30.5 -2 q21 -5 42 -26t24 -48q1 -6 1 -12q0 -30 -20 -60q-30 -32 -71 -34l-13 -2q-33 -6 -73.5 -8.5t-69.5 -2.5t-77.5 1t-69.5 1q2 -29 2 -82v-340q-3 -33 -17 -48.5t-55 -24.5q-11 -2 -21 -2q-30 0 -55 18q-33 24 -37 72q-1 16 -1 40.5t0.5 66.5t0.5 73q-14 284 -14 636v89 q-3 47 -3 71q0 11 1 17z" />
<glyph unicode="g" horiz-adv-x="960" d="M49 446q-3 44 -3 85q0 229 95 372q68 96 157 159.5t194 63.5q30 0 58 -3t47 -7t39.5 -10.5t30.5 -10.5t24.5 -10.5t17.5 -7.5q18 -8 36 -32.5t23 -56.5q1 -5 1 -10q0 -26 -21 -48q-8 -9 -16 -15t-18.5 -8t-17 -3.5t-21 1t-19 3.5t-23 6t-21.5 6q-43 12 -83 12 q-116 0 -205 -107q-37 -47 -59 -106t-27 -91t-9 -83q0 -55 2.5 -91t12.5 -84.5t34.5 -86.5t63.5 -66q67 -49 139 -49q49 0 97 22q65 31 88.5 87.5t25.5 144.5v22q-91 -26 -127 -26q-48 0 -77 20q-27 18 -27 49v7q3 58 65.5 96.5t235.5 68.5l82 15q85 0 100 -64q4 -11 4 -21 q0 -49 -84 -87q0 -6 2 -31t2.5 -33t1.5 -30t1 -32.5t-0.5 -29.5t-2.5 -32t-5 -30t-7 -32q-16 -47 -41.5 -88t-67 -81t-106.5 -63.5t-145 -23.5q-200 0 -316 117t-131 333z" />
<glyph unicode="h" horiz-adv-x="870" d="M84 705q0 65 4 166t4 124v21q0 3 0.5 8t4.5 19t11.5 24.5t23.5 20.5t38 12h11q63 0 87 -56q12 -30 12 -89q0 -16 -1 -33q0 -46 -4.5 -137t-4.5 -132l336 -2q2 364 6 393q5 40 31 68.5t64 28.5q37 0 60.5 -28.5t23.5 -74.5q0 -25 -3 -139l-8 -788q0 -49 -31.5 -71 t-54.5 -22q-36 0 -66 27.5t-30 93.5v342l-133 -4h-191v-28q0 -157 5 -216l5 -80q4 -65 3 -81q-1 -36 -31 -64q-32 -28 -61 -28h-5q-30 0 -56 24q-30 26 -30 72l-8 258l-10 291z" />
<glyph unicode="i" horiz-adv-x="350" d="M78 514q0 68 6 162l6 194v107q1 28 1 39.5t2.5 32t6 28t10.5 19.5t17 16.5t25.5 8t35.5 3.5q19 0 33.5 -6t23 -20t13.5 -24t7.5 -32.5t3 -30t1.5 -30.5q0 -1 1 -119v-70q0 -61 -1 -85q-3 -177 -3 -364q0 -93 1 -189v2q1 -7 2 -18t-1.5 -39t-11 -50t-32.5 -39.5t-61 -17.5 q-26 0 -43 12t-24 34t-9 39.5t-2 43.5q-8 81 -8 393z" />
<glyph unicode="j" horiz-adv-x="858" d="M32 270q3 47 19 76q28 41 75 41h11q35 -4 54 -30.5t25.5 -60.5t14 -67t29.5 -54q18 -18 47 -18q6 0 12 1q18 2 31.5 17.5t21.5 47.5t13 60.5t7.5 80t3 80.5t1.5 86q0 82 2 115q4 61 4 156q0 100 -2 127q-129 -6 -178 -6q-55 0 -67 4q-40 14 -54 31t-14 55t32 64t70 26 q119 0 295 12l228 12q25 0 45 -2q23 -2 50 -34q24 -27 24 -59q0 -4 -1 -9v-2q-2 -17 -9.5 -30.5t-20 -21.5t-25 -13t-31 -7t-30.5 -3t-32 -1.5t-28 -1.5q-19 -1 -34.5 -2.5t-23 -2.5t-9.5 -1l-6 -387q-2 -172 -13.5 -274.5t-40.5 -163.5q-37 -74 -86 -102q-47 -27 -144 -27 h-7q-60 2 -103 18.5t-58.5 31.5t-31.5 38q-43 49 -59 120q-7 26 -7 60v20z" />
<glyph unicode="k" horiz-adv-x="870" d="M76 1042q3 38 25.5 60t76.5 22q87 0 95 -159q0 -10 1 -27v-8q0 -203 2 -223q77 62 119 104q52 50 156 158q11 10 26 25.5t27 28.5t27 27.5t29.5 24.5t31 16.5t35.5 6.5t39 -8q28 -11 38 -25.5t15 -42.5q1 -8 1 -15q0 -35 -23 -67l-238 -231q-10 -11 -25 -24.5t-22 -20.5 q9 -19 32 -55.5t27 -43.5q9 -17 30.5 -50t58.5 -87t55 -82h-2q116 -171 118 -184q26 -49 26 -85q0 -40 -34 -61q-24 -19 -56 -19q-9 0 -21 2q-46 8 -74 44q-24 28 -80.5 113.5t-71.5 115.5l-158 263l-79 -56l4 -205q0 -167 -8 -217q-6 -31 -29.5 -58.5t-67.5 -27.5 q-35 0 -60.5 27t-29.5 72q-2 20 -2 47.5t2 62.5q1 20 1 54q0 118 -11 399q-9 230 -9 333q0 59 3 76z" />
<glyph unicode="l" horiz-adv-x="739" d="M72 297l4 164v22q3 93 5 170.5t3.5 115.5t2 65.5t1 37.5t0.5 15q0 31 -2.5 74.5t-3 61t3.5 50.5q3 13 7 22t13 20.5t27.5 18.5t44.5 9q29 1 48.5 -10t28.5 -32t12.5 -39t4.5 -40v-29q0 -67 -4 -276l-2 -82q-6 -183 -6 -234v-65l4 -158q8 -2 92 -2q75 0 170 10l45 4 q12 1 24 1q34 0 58 -11q32 -15 39 -47q5 -21 5.5 -42.5t-16 -42t-48.5 -28.5h2q-34 -12 -130 -19t-140 -7q-55 0 -80.5 0.5t-62.5 4.5t-56 12t-38.5 23.5t-31.5 39.5q-24 47 -24 223z" />
<glyph unicode="m" horiz-adv-x="995" d="M78 100q0 105 3 509.5t7 430.5q7 42 38.5 64t68.5 24h11q34 0 55 -11q24 -13 44 -56l154 -336l33 -66l81 154q122 229 129 246q9 22 36 42t65 23q58 0 78 -32t24 -88q6 -74 6 -908v-10q1 -40 -13 -64q-16 -28 -60 -34q-12 -2 -23 -2q-37 0 -61 23q-29 27 -29 67v8l-4 594 q-88 -160 -123 -215q-13 -23 -24.5 -37.5t-37.5 -28t-59 -12.5q-31 2 -55.5 20.5t-56.5 65.5v-2q-14 18 -125 262q15 -64 23.5 -225t9.5 -248t1 -141q0 -77 -49 -113q-28 -21 -55 -21l-43 12q-49 28 -49 105z" />
<glyph unicode="n" horiz-adv-x="921" d="M82 1071q1 6 4 14.5t21.5 25.5t46.5 22q10 2 20 2q58 0 109 -72l65 -100q84 -136 157.5 -262t104.5 -184l31 -58q-16 172 -16 569q0 104 80 117q14 2 26 2q29 0 47 -13q24 -18 39 -63q6 -27 10 -162q0 -86 2 -216.5t2 -184.5q4 -350 7 -391q0 -3 0.5 -15t0.5 -18.5 t-2.5 -17t-7.5 -19.5q-8 -14 -14.5 -22.5t-23.5 -15.5t-43 -7q-35 2 -55.5 11t-43.5 34q-17 28 -213 391l-55 111q-70 126 -115 201q0 -93 4 -175l2 -92q0 -401 -10 -430q-8 -19 -14.5 -30t-26 -22t-47.5 -11q-51 0 -68.5 23.5t-19.5 60.5v86q2 156 2 301.5t-2 281.5 q0 48 -0.5 98.5t-1 83.5t-0.5 38q-2 33 -2 108z" />
<glyph unicode="o" horiz-adv-x="974" d="M45 565q3 83 22.5 163t56 153t87 130t119.5 94t149 44h13q106 0 196 -48q96 -51 148 -145q29 -52 44 -89t27.5 -115.5t12.5 -188.5q0 -111 -24.5 -212.5t-73.5 -187t-133.5 -137.5t-194.5 -53h-18q-96 0 -168 29q-79 32 -140 115q-58 75 -92 199q-31 112 -31 223v26z M248 647q-15 -66 -14 -130q0 -130 61 -249v2q34 -58 77 -86q38 -24 97 -24h18q95 1 149.5 66.5t80.5 187.5q24 101 24.5 192.5t-24.5 173.5q-23 76 -69 116.5t-124 55.5q-11 1 -22 1q-42 0 -80 -19q-48 -24 -81 -70.5t-56 -100.5t-37 -116z" />
<glyph unicode="p" horiz-adv-x="759" d="M84 602v98q2 88 2 287q-2 27 -2 48.5t2 38.5q4 34 23 46q20 10 39 12q13 1 46 1h39q10 0 40.5 -1.5t50.5 -1.5q55 -1 101 -10.5t73.5 -20.5t54.5 -33t36.5 -32t28.5 -33v-2q38 -46 61.5 -106.5t27.5 -167.5v-13q0 -62 -27 -122q-30 -66 -78 -112.5t-102 -78t-103 -41.5 q-41 -7 -114 -12l2 -47q4 -110 4 -188l-4 -70q-11 -28 -28.5 -40t-49.5 -9q-47 3 -76.5 36.5t-32.5 80.5zM270 590q0 -68 2 -74q58 7 109 27q18 7 24 9.5t29 14.5t35 24.5t28.5 31.5t24.5 45t8 57v6q0 57 -17 99q-18 45 -44 67.5t-63 35.5t-62.5 16t-54.5 3h-19l4 -127z" />
<glyph unicode="q" horiz-adv-x="958" d="M44 644q26 150 97 280q55 82 121 137t140 81q44 16 91 16q32 0 64 -7q82 -17 160 -80q73 -65 121 -190q43 -102 50 -225q3 -33 3 -65q0 -87 -15 -167q-20 -111 -61 -219l62 -66q33 -41 33 -77q0 -24 -15 -46q-24 -38 -65 -42h-11q-35 0 -61 24l-60 53q-126 -71 -239 -71 q-23 0 -45 2q-132 18 -229 115.5t-134 246.5q-19 84 -19 168q0 66 12 132zM229 440q6 -77 29.5 -137.5t76 -98.5t128.5 -38q47 0 100 16l-2 4q-8 7 -20 21l-113 133q-13 19 -22.5 41.5t-10 53.5t20.5 52v-2q22 22 54 23.5t56.5 -9.5t34.5 -24l105 -121q26 82 34 168 q4 32 4 64q0 55 -10 110q-14 89 -53 158q-62 114 -156 117h-4q-51 0 -85 -27q-35 -27 -72 -86q-31 -49 -54 -118.5t-35 -146.5q-8 -51 -8 -102q0 -26 2 -51zM657 334l9 20l-9 -18v-2z" />
<glyph unicode="r" horiz-adv-x="759" d="M72 999q1 35 4.5 55t18.5 42t44 30q104 17 226 23q66 -3 133 -47v2q56 -34 98 -95t61 -130q11 -80 11 -84q0 -34 -11 -76v6q-2 -2 -2 -4q-19 -82 -71 -162q-7 -10 -18.5 -22.5t-19.5 -19.5l-7 -7q39 -80 92 -197l53 -112q31 -50 31 -103q0 -61 -56 -98q-23 -13 -40 -15 t-31.5 9.5t-21.5 21t-21 31.5l-21 35v-2q-23 33 -135 276l2 -2q-8 16 -18.5 44t-18.5 44q-74 -8 -80 -8v-24q-1 -86 -1 -148t0.5 -102t0.5 -49q0 -83 -8 -93q-19 -30 -61 -30q-11 1 -36.5 -0.5t-52 14.5t-26.5 47q0 14 -4 68q-2 93 -2 372v205l-6 133q-6 117 -6 157v15z M268 954q6 -119 11 -323q85 5 122 24q30 15 53 73q18 46 18 86q0 10 -1 20q-7 53 -20.5 81.5t-44.5 38.5q-24 7 -60 7q-43 0 -78 -7z" />
<glyph unicode="s" horiz-adv-x="849" d="M35 152q1 42 33 74q23 23 51 24q11 0 24 -4v2q34 -12 80.5 -38t87.5 -42t86 -16q65 0 115 30q62 43 80 96q9 26 9 50t-10 48q-19 46 -64 83.5t-105 52.5h2q-62 15 -80 19.5t-56.5 17.5t-63.5 28.5t-54 40.5q-42 34 -68 95.5t-26 128.5q0 66 30 131q99 178 304 188h15 q79 -1 171 -39q100 -42 125 -80q25 -25 31.5 -56.5t-20.5 -57t-91 -25.5q-19 0 -63 23q-69 28 -117 37h2q-10 1 -20 1q-37 0 -71 -14q-44 -18 -66 -50q-20 -32 -24 -66q0 -3 -1 -6q0 -31 29 -61q32 -33 96 -50q158 -46 209 -68q130 -58 166 -163q17 -49 18 -113 q0 -28 -4 -58q-6 -61 -31 -116t-59 -93t-66.5 -63t-60.5 -37q-108 -45 -209 -45q-75 0 -148 29q-79 36 -132.5 82t-53.5 80z" />
<glyph unicode="t" horiz-adv-x="768" d="M10 1053q12 73 101 73h174l323 -2q66 -3 95.5 -31t29.5 -67q0 -33 -22.5 -56.5t-57.5 -29.5l-100 -6q-30 -2 -45.5 -2t-18.5 2l7 -158l2 -334q-4 -256 -9 -342q-4 -50 -33 -77t-59 -29q-29 2 -49 14.5t-30 28t-15.5 42t-6.5 44t-1 47.5l4 117v-2l12 393q0 188 -6 256 l-172 4q-65 0 -97 36q-27 29 -27 64q0 7 1 15z" />
<glyph unicode="u" horiz-adv-x="925" d="M82 776v41q0 183 16 253q18 78 82 79q74 0 100 -43q19 -32 19 -100q0 -24 -2 -52l-14 -292q-1 -19 -1 -40q0 -103 21 -243q32 -208 170 -211h3q56 0 92 34q36 36 61 113q14 63 14 299l-2 242q-1 26 -1.5 41t0 49.5t3.5 57t10.5 52t19 47t31 30t44.5 12.5q45 0 66 -35 t32 -100l4 -154q0 -138 -6 -308t-13 -233q-9 -53 -27.5 -101.5t-53 -100t-94.5 -88t-138 -48.5q-33 -5 -65 -5q-47 0 -89 12q-72 20 -121 63t-81 100.5t-43 124.5q-24 141 -30.5 231.5t-6.5 272.5z" />
<glyph unicode="v" horiz-adv-x="833" d="M43 983q-6 17 -6 35q0 22 8 46q15 44 53 52q26 6 46 6q22 0 36 -8q27 -14 39 -45l49 -156l39 -122q51 -181 74 -263q21 -71 29 -102l8 -29q12 37 39 135q12 42 38 145.5t48 186.5l35 142v-2q20 86 26 98v-2q10 27 59 42q19 6 36 6q27 0 49 -15q32 -22 39 -52.5t-1 -54.5 l-71 -287l-56 -204q-124 -425 -143 -472q-14 -33 -42 -54t-64 -21q-41 0 -63.5 23t-39.5 65l-110 393z" />
<glyph unicode="w" horiz-adv-x="1273" d="M33 1042q0 43 18 65.5t62 29.5q8 1 15 1q32 0 58 -16q32 -20 39 -45q4 -13 14 -49.5t23.5 -88.5t22.5 -85l39 -156q86 -343 100 -379q31 47 66.5 129.5t54.5 135.5q20 61 98 67h8q35 1 57 -23q26 -26 37 -57q11 -33 21 -62t16.5 -49t12 -37t9 -27.5l6.5 -19.5l4.5 -13.5 t2.5 -8t2 -5t2 -3.5l74 279q128 420 143 448q18 39 44 52q12 6 31 6q20 0 46 -7q25 -9 38.5 -27.5t15 -40t0 -36t-4.5 -25.5v-2q-5 -15 -43 -139.5t-82 -276t-51 -190.5q-72 -262 -78 -285q-20 -58 -43 -80q-22 -21 -53 -26q-30 -5 -52.5 6.5t-33.5 26t-31 47.5l-10 16v-2 q-67 113 -94 211l-6 14l-131 -262q-14 -26 -42 -45q-22 -15 -50 -15q-7 0 -15 1q-80 8 -100 112v-2q-12 41 -37.5 124t-36.5 124l-55 178q-26 89 -78.5 292t-52.5 220z" />
<glyph unicode="x" horiz-adv-x="870" d="M24.5 1065q2.5 39 30.5 61q22 16 47 16q8 0 15 -2q33 -6 60 -24t46 -43l158 -242l25 58l65 147q59 122 92 135q25 11 48 11q17 0 32 -6q33 -13 49 -53q9 -21 9 -39q0 -16 -7 -29l-24 -54l-45 -100q-8 -17 -21.5 -45.5t-41.5 -88.5t-47 -99.5t-19 -38.5q325 -489 325 -490 q17 -30 17 -59q0 -12 -2 -24q-10 -40 -41 -56q-26 -12 -42.5 -12t-52.5 16q-28 13 -58 53.5t-107 165.5l-129 199l-156 -363q-28 -43 -52 -61q-18 -12 -42 -12q-10 0 -21 2q-41 8 -58 42q-10 20 -10 41q0 15 5 31l215 519q-20 29 -69.5 110.5t-57.5 93.5q-98 131 -125 179 q-13 22 -10.5 61z" />
<glyph unicode="y" horiz-adv-x="796" d="M35 1074q10 39 45 52q14 5 30 5q19 0 40 -8q38 -15 63 -50q28 -39 76 -121l61 -108q69 -128 72 -129q3 36 70.5 201t89.5 202q28 38 78 38q8 0 16 -1q31 -4 51 -27t23 -51v-6q0 -20 -14 -67q-18 -56 -40 -103l-28 -61l2 2q-158 -330 -158 -367l10 -287q2 -57 2 -94 q0 -47 -15.5 -70t-66.5 -30q-8 -1 -16 -1q-55 0 -80 52l2 -2q-14 27 -20 111q-2 87 -3 175t-1.5 124.5t-1.5 48.5l-150 272l-125 225q-15 24 -15 50q0 12 3 25z" />
<glyph unicode="z" horiz-adv-x="821" d="M43 76q-4 12 -4 26q0 33 24 74v2l87 156q34 60 34 61q6 11 73.5 139t134 250.5t87.5 155.5q-57 2 -168 2q-57 0 -129 6q-70 8 -90 48q-11 23 -11 45q0 18 7 36v-2q20 51 100 51h15h116h293q41 -1 65.5 -6.5t36.5 -20.5t15 -24.5t8 -36.5q1 -8 1 -16q0 -34 -25 -66 l-15 -22h2q-8 -11 -122 -198.5t-224 -370.5q-110 -181 -110 -183q0 -6 96 -8q25 -1 55.5 -0.5t67.5 0.5q74 2 96 2q9 1 33.5 3t33.5 2t33 -1q73 -5 97 -43q12 -14 12 -37q0 -20 -10 -47q-23 -55 -90 -55h-252q-4 0 -25.5 1t-38.5 1q-138 5 -172 8q-66 5 -95 19t-42 49z" />
<glyph unicode="{" horiz-adv-x="585" d="M10 526q0 25 7.5 42t16 23.5t27.5 16.5t29 17l55 438q20 38 50 65q87 74 165 74q60 -2 86 -14q73 -47 54 -115q-3 -17 -16.5 -30t-26.5 -19q-16 -8 -39 -8q-18 0 -39 6q-28 3 -49 -21q-16 -16 -25 -40l-4 -13l-16 -346q-7 -31 -31 -74q3 -3 10.5 -13t11.5 -13l17 -29 q14 -30 31 -369v-22q0 -1 3 -19t5 -26q0 -7 5.5 -15t10.5 -10q2 -2 35 -2q35 0 45 -2q19 -6 36 -27t21 -44q7 -45 -32 -70q-35 -27 -111 -27h-10q-74 7 -119 49q-31 28 -48.5 75t-27.5 157l-8 250l-45 86l2 -2q-1 0 -10 4.5t-12.5 6t-12.5 6.5t-13 8.5t-10.5 9t-9.5 10.5 t-5.5 12t-2.5 14z" />
<glyph unicode="|" horiz-adv-x="376" d="M70 76q0 6 4 22q8 23 10 49v177q-2 506 -2 546q0 73 -4 127v19q-4 18 0 33q17 67 72 84q10 6 46.5 3t53.5 -18q29 -29 24 -76q0 -15 -4 -47v2l4 -473l-2 -90v-241q0 -7 1 -21t1 -20q4 -90 -12 -123q-20 -40 -65 -54h2q-8 -7 -45.5 -5t-57.5 22q-30 30 -26 84z" />
<glyph unicode="}" horiz-adv-x="526" d="M78 47q0 26 17 44.5t31.5 24.5t29.5 9q5 0 19 1t20 1q2 0 9 1t9 1h10l-2 -2q2 0 2 2q7 9 10 33q0 82 -4 102l7 113q0 65 16 104v-2q9 21 20 43q-19 12 -32 37q-24 36 -29 156q-2 18 -2 63q0 46 2 66q3 52 0 104v23l2 41h2q-75 24 -92 41q-30 25 -25 69q3 29 40 50t67 16 q40 -7 76.5 -24t50.5 -29q17 -11 39.5 -54t21.5 -98q0 -49 -2 -78q-2 -35 -2 -88q0 -25 2 -45q1 -15 1.5 -44.5t1 -52t1.5 -26.5l-2 2q7 -18 37 -35q21 -12 30 -18.5t19.5 -22t12.5 -36.5v-2q3 -25 -7 -43.5t-32 -42.5q-33 -37 -33 -64l-6 -115v-36q2 -18 2 -54 q0 -45 -2 -59q-1 -8 -3 -16.5t-6 -20.5t-6 -20q-47 -85 -100 -99l-14 -2l-9 -2l11 2q-50 -18 -86 -18q-20 0 -38.5 3.5t-39 13t-33 31t-12.5 52.5z" />
<glyph unicode="~" horiz-adv-x="937" d="M72 449q14 93 92 161q28 24 82 34.5t98 4.5q58 -13 129 -92v2l31 -31q44 -44 82 -71q48 -34 94 35v-3q23 36 27 84q4 30 8 45q31 71 102 46q25 -9 39 -39t14 -70q0 -38 -10 -72h2q-24 -84 -98 -153q-61 -54 -152 -54q-72 0 -133 41q-29 19 -84 82q-30 31 -43.5 44t-37 25 t-42.5 5q-20 -7 -29 -22.5t-8 -30.5t1 -29q3 -25 -3 -43v-2q-12 -26 -27.5 -38.5t-49.5 -16.5q-44 -5 -68.5 40.5t-15.5 117.5z" />
<glyph unicode="&#xa1;" horiz-adv-x="651" d="M49 283q0 63 23 139q14 44 52.5 86.5t68.5 63.5t79 51q54 30 60 47q-5 74 -4 119t15.5 67t49.5 31q25 10 44.5 6.5t32 -9t21.5 -20.5t14 -27.5t9 -29.5q14 -81 14 -121q0 -72 -22 -117q-18 -37 -43 -56.5t-64 -35.5l2 2l-47 -26q-27 -17 -46 -32t-42.5 -40t-33.5 -55.5 t-5 -65.5q6 -45 40.5 -76.5t70.5 -31.5h20q50 -3 97 28q47 29 81.5 27.5t55.5 -27.5h-2q32 -37 -4 -91t-88 -85q-57 -33 -144 -33q-58 0 -108 21q-58 28 -88 54.5t-62 72.5q-47 66 -47 164zM293 1016q-12 62 19.5 93.5t76.5 31.5q55 0 90 -41v2q25 -22 25 -70 q-3 -39 -29 -65q-32 -25 -69 -25h-3q-90 0 -110 74z" />
<glyph unicode="&#xa2;" horiz-adv-x="778" d="M29 375q0 38 6 78q27 161 112 278q71 92 197 143q0 59 4 82q6 26 32 45t60 19q30 0 49 -24.5t23 -49.5l4 -24v-27q71 -10 105 -23q46 -20 72.5 -60t8.5 -75q-11 -24 -32.5 -34.5t-37 -9.5t-26.5 5q-12 6 -61 13l-45 8q-2 -20 -2 -82q0 -14 1 -40t1 -38q0 -4 1 -22.5 t1 -32.5q1 -45 3.5 -131t4 -147t0.5 -76q7 2 23 6t26 7t12 5q4 2 27.5 16.5t45 25.5t30.5 11q72 0 92 -67q8 -62 -102 -136h-2q-46 -25 -150 -34q1 -6 2 -15.5t2 -34t-2 -32.5q-18 -57 -80 -52q-26 2 -43.5 11t-25 24t-10 26.5t-3.5 27.5l-4 32q-54 12 -112 43 q-72 44 -125 109q-55 74 -72 151q-10 52 -10 101zM207 358q0 -12 1 -23t3.5 -21.5t4.5 -18t6.5 -17t6.5 -13.5t7 -13.5t6 -11.5l8 -15q20 -33 123 -67v4q-2 83 -11 493q-37 -3 -80.5 -62.5t-60.5 -135.5q-14 -57 -14 -99z" />
<glyph unicode="&#xa3;" horiz-adv-x="1026" d="M17 449.5q-5 18.5 1 33.5t23 35q22 33 113 33q31 0 41 -2l2 76q-41 0 -74 2q-51 1 -69 34.5t-7 71.5q7 31 31.5 45t68.5 19l78 4q13 40 43 102l-2 -2q39 73 94 131q25 25 64 52.5t111 55t141 25.5q58 -2 108.5 -20t81 -43t45.5 -51.5t9 -46.5q-17 -64 -101 -52h2 q-10 0 -18 4q-67 29 -139 29q-56 0 -99 -22q-92 -43 -137 -154h190q27 0 37 -2q1 0 4.5 -1t4.5 -1q29 -3 69 -39.5t21 -81.5q-4 -10 -10 -18t-14.5 -13.5t-15.5 -10t-19.5 -7t-19 -4t-22 -2t-20.5 -0.5h-22h-19q-193 -2 -207 -2q0 -4 -2 -37t-2 -37l-2 -4q84 0 108 4h-2 q3 0 113 4q57 5 99 -15.5t42 -66.5q-4 -31 -22 -51.5t-35 -25.5l-16 -5q-36 -8 -93 -8q-98 -4 -172 -4h-16q7 -42 19 -68.5t36 -60.5q50 -72 131 -98h-2q37 -11 80 -11q33 0 82 9q62 13 103 24h-3q3 1 7 2t16.5 1.5t24 -3.5t25.5 -15.5t24 -31.5q16 -39 14 -53.5t-22 -32.5 l2 6l-15 -18v-2q-35 -42 -229 -70q-74 -9 -160 18t-149 84q-97 85 -133 215l-29 99q-129 0 -164 35q-21 21 -26 39.5z" />
<glyph unicode="&#xa4;" horiz-adv-x="1062" d="M85.5 279q-2.5 24 12.5 43v-3q21 35 52 60q-18 50 -27 104q-12 65 -6 138q6 57 24 122q11 34 52 97q-62 51 -62 67l-3 9t-2.5 18.5t3 25t15.5 27t32 25.5h-2q71 36 129 -41q12 8 24.5 14t32.5 13.5t29 11.5q53 18 125 18q82 0 150 -27q51 -20 94 -55l24 27q64 73 140 10 q25 -23 30.5 -50t-5.5 -49.5t-23.5 -38t-24.5 -24.5l-25 -20l10 -20t10.5 -20.5t6.5 -12.5q31 -70 31 -156q0 -42 -2 -60q-11 -92 -60 -182l66 -71q14 -15 11 -36t-10 -36t-13 -21q-31 -29 -90 -22q-26 5 -64 53q-90 -78 -207 -84h-16q-98 0 -182 35q-34 15 -111 72 q-36 -41 -72 -45h2q-27 -6 -50.5 5.5t-34.5 33t-13.5 45.5zM299 573q13 -151 92 -223q33 -29 67.5 -36.5t90.5 -4.5q48 3 102 46.5t74 95.5q27 79 27 151q0 70 -27 123q-17 33 -29.5 51t-35 38t-56 29.5t-80.5 10.5q-96 4 -165 -86.5t-60 -194.5z" />
<glyph unicode="&#xa5;" horiz-adv-x="686" d="M39 381q0 31 18 41q24 19 41 24q28 7 90 7q40 0 54 -2h41h18v16q0 9 1 33.5t1 38.5q2 25 2 73q0 12 1 37t1 37v145q0 13 -1 37t-1 33v19h-51q-6 0 -12 -2h-56q-45 0 -75 6q-5 0 -11 6q-6 2 -14 2q-31 14 -43 35q-16 29 2 67q34 31 82 31q29 0 70 -6h-4q2 -2 8 -2h59 q6 2 23 2q8 2 26 2v29q0 4 1 14t1 16q0 27 2 37v55q0 20 4 60q0 1 1 4t1 4q0 6 5 15t10 12q28 12 45 12q25 0 45 -12l31 -31l2 -19v-73q4 -41 0 -82v-49h55q40 0 74 -11q50 -14 69 -67l4 -17q0 -16 -16 -24l-14 -8q-44 -13 -90 -13h-58q-4 2 -8 2q-2 0 -6.5 1.5t-5.5 1.5h-4 v-13q0 -9 -1 -32t-1 -37q-2 -47 -2 -144v-248h26q2 0 6.5 1t6.5 1q3 0 12 3h39q1 0 4 -1.5t4 -1.5l24 -6q25 -10 31 -18l-2 2q15 -12 27 -43l4 -12q0 -10 -8 -18.5t-17 -10.5q-22 -19 -57 -27q-40 -4 -76 -4h-33l-4 -106q-4 -80 4 -135v-15q0 -19 -22 -28q-29 -13 -53 -13 q-1 0 -37 6q-11 2 -19 10.5t-8 20.5l-2 6v-4q-8 39 -8 92v41q0 7 1 24.5t1 24.5q2 10 2 23q0 5 1 13.5t1 13.5v28l-49 4q-8 0 -24 1t-21 1h-45h-6h-4q-2 0 -9 -1t-12 -1h-14q-47 0 -64 27q-14 18 -14 39zM139 324q5 -5 13 -5q-3 0 -13 5zM315 449l2 -3zM334 18h2h-2zM408 20 l10 5h-2z" />
<glyph unicode="&#xa7;" horiz-adv-x="772" d="M37 668q7 90 41 149q24 52 61 92q38 33 51 41l-4 4v-2q-6 3 -12 13l-8 14q2 -2 4 -2l-6 8l-4 6v-2q-16 24 -13 25q4 0 3 2q-26 72 -13 147q8 60 53 121q37 53 82 76q53 26 115 26q54 0 113 -26q45 -20 73 -45q51 -48 39 -101v5q-2 -4 -2 -11q0 -10 -9 -19t-19 -9h-13 q-33 0 -57 16l-33 18l-24 17q-3 2 -7 4t-8.5 3.5t-5.5 2.5l8 -2q-2 1 -11.5 4t-16.5 4h-19q-30 0 -55 -14l2 2q-23 -17 -43 -51l2 2q-20 -53 -18 -92q3 -46 28 -82q6 -9 23 -23l4 -4q4 -4 12 -8l6 -6l29 -23l-8 4l31 -18l8 -8h2l-10 4l18 -8l6 -4h-6q18 -11 27 -23l12 -14 l-4 6l8 -6q14 -23 45 -50h-2q42 -39 72 -73q34 -44 47 -101q13 -47 6 -86q-2 -33 -16 -82q-4 -11 -16 -35.5t-17 -37.5q-5 -9 -45 -66q-10 -10 -23 -10l-10 -6l2 2q-15 -10 -18 -10l-7 -2h-4l-2 -2q34 -39 58 -113q15 -53 12 -115q0 -47 -25 -106q-24 -53 -71 -97h2 q-51 -51 -76 -69l-10 -10q-1 -3 -9 -6t-12 -3l-8 -2l13 1l-46 -7h2q-27 -6 -65 -6q-59 0 -84 31l-8 20q-5 21 -2 37q8 38 51 45l43 6h20l25 6l-6 -4q5 3 16 11t16 12h-2q19 19 39 43v-2q9 14 29 55q14 31 20 62q6 28 0 69q-4 36 -36 64q-27 27 -43 35l2 -3q-16 7 -33 19 q-3 2 -7 5t-10 5l-61 31q-37 19 -59 41l-19 20l-22 31l-13 18v-2q-9 9 -28 43l4 -6q-12 8 -12 21l-13 22q-20 63 -16 144zM160 989l4 -4l2 -6q-6 3 -6 10zM184 623q0 -33 6 -54q0 -7 11 -22q-2 -2 0 -2q16 -23 51 -62v2q14 -15 49 -43q15 -12 33 -16h16q66 0 109 59 q24 35 30 82q10 50 -10 88q-3 25 -28 50q-10 15 -60 61q-54 43 -67 49q-22 14 -29 14q-18 0 -33 -12l2 2q-24 -20 -28 -28q-1 -2 -11.5 -20t-15.5 -32q-11 -15 -19 -57zM399 932l9 -2h-2q-1 0 -3.5 1t-3.5 1zM508 336l12 4h-2h-4z" />
<glyph unicode="&#xa8;" horiz-adv-x="641" d="M59 1219q-5 35 7 79q6 20 14 27q38 41 82 41q32 0 74 -27q38 -30 38 -79q0 -45 -32 -80q-37 -33 -82 -33q-46 0 -88 45v-2l-4 10q-9 9 -9 19zM356 1229q-12 66 21 108q27 37 80 37q30 0 71 -26l-2 2q42 -23 45 -82q0 -46 -32 -78q-36 -33 -82 -33q-55 0 -88 41q-7 7 -7 8 q-6 6 -6 23z" />
<glyph unicode="&#xa9;" horiz-adv-x="845" d="M106 473q-9 70 17 148q6 20 39 79q29 47 65 80q39 39 84 62q47 24 101 24h8h26q46 0 76 -12q5 -2 64 -33l20 -14q89 -50 119 -121q38 -77 0 -192q-35 -123 -109 -185q-81 -68 -190 -80h-16h-15q-70 0 -137 31q-59 29 -100 88q-44 60 -52 125zM184 477q4 -30 13 -45 q13 -30 22 -41q14 -21 29 -33q23 -19 31 -24q41 -23 96 -23q25 0 71 11q36 9 68 26q25 12 57 41q27 23 41 49q1 3 7.5 16.5t9.5 22.5q9 24 18 51q8 36 12 52q4 33 3 38q0 25 -21 60q-23 34 -57 55q-33 23 -76 39q-41 12 -76 12q-48 0 -96 -28q-29 -18 -53 -49 q-32 -36 -50 -70q-28 -51 -38 -84q-13 -49 -11 -76zM252 535v2q-3 36 12 79q19 44 51 78q23 26 54 43q27 15 53 15q12 0 20 -2q3 -1 23 -11q12 -9 24 -24q11 -17 19 -43l4 -10l-10 -5q-8 -10 -29 -10q-27 0 -43 25q-35 -19 -61 -49q-11 -14 -21 -37q-9 -21 -6 -47 q3 -22 23 -29q18 -6 28 -6q22 0 49 10q19 7 35 27l10 14l15 -12q16 -17 22 -33q6 -18 6 -43v-8l-6 -4q-50 -33 -114 -33q-58 0 -99 27q-47 30 -59 86z" />
<glyph unicode="&#xaa;" d="M379 754q3 16 61 247l29 103q7 23 15.5 55t15.5 57.5t8 28.5q14 28 51 31q18 1 34.5 -13.5t22.5 -29.5l11 -39l32 -121l31 -100l33 -99q18 -51 20 -55q15 -29 17 -37l2 -8q13 -31 0 -49q-21 -25 -41 -25q-17 0 -39 27q-9 12 -25 66v-2l-34 83l-19 54h-43l-47 -4l-4 -21 l-41 -155q-4 -25 -29 -38.5t-41 -2.5q-25 17 -20 47zM528 1008l64 4l-6 18q-14 38 -22 66t-10 36l-1 9q-6 0 -25 -133z" />
<glyph unicode="&#xab;" horiz-adv-x="1705" />
<glyph unicode="&#xad;" horiz-adv-x="798" d="M33 469q15 41 31.5 50.5t78.5 10.5l31 2l201 7l100 12q62 4 166 4q3 0 9 -0.5t21.5 -4t28 -10t25 -21t16.5 -34.5q13 -51 -10.5 -79.5t-64.5 -28.5q-96 0 -170 -4l-320 -25l-37 -2q-63 3 -90 47q-31 39 -16 76z" />
<glyph unicode="&#xae;" horiz-adv-x="757" d="M55 588q0 97 45 168q30 58 86 90q54 29 123 26q17 0 29 -4q30 -4 43 -8q7 -2 21.5 -6t21.5 -6q21 -7 31 -12q65 -30 118 -86q64 -67 84 -138q30 -99 -26 -188q-8 -16 -39 -47q-33 -29 -53 -39q-41 -25 -62 -33q-32 -14 -59 -20q-24 -4 -35 -4q-10 -2 -33 -2q-41 0 -74 8 q-41 10 -71 28q-65 33 -105 99q-45 85 -45 174zM143 561q3 -71 35 -119q21 -35 62 -53q48 -20 94 -20q70 0 131 30q60 28 84 74q18 32 20 53q7 27 4 49q-4 29 -10 41q-3 12 -16 37q-17 31 -43 54q-28 25 -58 43q-42 22 -67 30q-42 11 -66 11h-16q-6 0 -16 -5q-34 -3 -64 -30 q-30 -30 -47 -68q-27 -62 -27 -127zM229 633l9 4q8 8 14 20q1 4 3 11.5t3 11.5q1 3 3 10t3 10q2 6 10 23q25 35 66 35q38 0 59 -27q28 -35 19 -80v-2q-4 -12 -6 -16q-8 -12 -11 -15q-2 -4 -8 -10q-2 -2 -6 -10q2 -2 14 -10l7 -3l10 -5q12 -8 22 -13q17 -13 21 -18 q9 -9 12 -25t-2 -32l-4 -11h-8q-27 0 -45 11q-14 8 -31 22q-9 9 -23 16q-14 9 -26 9v-7q2 -4 2 -16q0 -9 -8 -20l-2 -4l-7 -3q-51 -3 -65 35q-6 8 -10 29q-1 5 -2 15.5t-2 15.5q0 4 -1 11t-1 11q-1 3 -2.5 8.5t-2.5 8.5z" />
<glyph unicode="&#xaf;" horiz-adv-x="729" d="M45 1008q-5 35 5 63t28 29q1 0 19 3t38 3h10l66 2h115l102 12q31 2 123 2h9t21.5 -3.5t28 -9.5t25 -20t16.5 -34q13 -52 -10.5 -81.5t-65.5 -29.5q-89 0 -126 -2q-53 0 -111 -6l-246 8q-44 0 -47 64z" />
<glyph unicode="&#xb0;" horiz-adv-x="509" d="M57 1309q15 44 23 59q18 36 35 53q27 27 61 39q31 17 76 17q28 0 63 -15h-4q27 -7 68 -32q31 -20 59 -52q27 -45 29 -69q6 -68 -49 -142q-11 -13 -22.5 -24t-22.5 -21t-15 -14q-40 -21 -63 -25q-10 0 -14 -2h-23q-48 0 -88 19q-37 18 -72 59q-32 41 -39 70q-11 37 -2 80z M205 1241l22 -12h-2q12 -6 31 -6q8 0 14 4q10 5 15 12l16 27l16 30v2q2 6 2 9q-2 2 -2 4l-22 16q-14 9 -35 12q-15 -3 -18 -6q-18 -12 -25 -30q-8 -16 -12 -43q-3 -14 0 -19z" />
<glyph unicode="&#xb1;" horiz-adv-x="1032" d="M84 264q-3 38 31 65.5t88 30.5l184 7q330 12 385 12q90 0 121 -29.5t29 -77.5q-1 -22 -10.5 -36t-28.5 -21.5t-33.5 -10t-42.5 -5.5q-70 -10 -246 -15q-14 0 -31 -1t-20 -1q-28 -1 -77.5 -5.5t-85.5 -7t-80.5 -2t-78.5 6.5q-40 6 -70 31t-34 59zM131 731v2q1 30 21.5 52 t39 30t25.5 8h23l168 -8v4l-7 21l-8 24q-4 31 10 54q12 24 33 40q19 13 45 13q13 0 33 -8q3 -2 29 -15q27 -19 39 -63q7 -33 10 -76q11 0 43 4h6q2 0 6 1t6 1l37 6q16 2 47 2q21 -2 41 -4q65 -10 84 -76v2q7 -22 4.5 -39t-11 -29.5t-18 -21t-17.5 -12.5l-7 -4 q-47 -12 -104 -12h-121q12 -91 8 -109q-3 -38 -35 -63h2q-9 -7 -27.5 -12.5t-46 -3t-47.5 19.5q-27 31 -30 82q0 7 1 39t1 47q-9 0 -28.5 1t-29.5 1q-26 0 -80 4q-48 0 -81 10q-3 1 -7 2.5t-15 8.5t-19.5 16t-15.5 25t-7 36z" />
<glyph unicode="&#xb4;" horiz-adv-x="473" d="M98 1006q0 7 2 13.5t3.5 10.5t5 10t5 8t6.5 8.5t7 8.5v-2l12 18q15 27 45 70q28 36 49 57q23 25 63.5 43t68.5 6q21 -9 32 -23.5t13 -26.5t2 -31q0 -36 -27 -76l-27 -33l-20 -20l-78 -107v2q-9 -15 -23.5 -26t-38 -15.5t-51.5 8.5h3q-37 14 -47 36.5t-5 60.5z" />
<glyph unicode="&#xb6;" horiz-adv-x="800" d="M57 1042q0 75 29 134v-2l14 28l-4 -14q0 1 2 5t2 5q25 39 35 49q16 25 35 37q19 19 29 23q49 31 112 39q2 0 4.5 1t3.5 1q14 1 52.5 3t56.5 3q6 2 16 2h27q3 0 9 1t9 1h29q89 0 135 -25l-12 2q1 0 3 -1t3 -1q12 0 21.5 -8.5t9.5 -19.5v-9q0 -55 -2 -96v-350 q0 -143 2 -215v-111v-104l6 -195v-10q0 -2 1 -6t1 -6v-19q4 -50 4 -84q0 -49 -14 -90l2 8q-4 -2 -4 -4q0 -10 -8 -19t-19 -11q-10 -2 -20 -2l-4 -1q-4 -1 -9 -1q-30 0 -53 20q-20 23 -20 57q0 4 1 12.5t1 12.5v20q0 2 1 6t1 7v10q2 18 2 108l-6 144q-4 82 -4 127q-4 62 0 98 v164q0 4 -1 9t-1 9q-1 35 -3.5 104t-3.5 89l-6 217v10h-18h-12h-41q-7 -126 -7 -264v-121q3 -135 19 -655l1 -4q1 -4 1 -8q4 -39 0 -70q-4 -48 -23 -64q-20 -20 -49 -20h-10q-62 10 -68 86q-4 20 -4 43q0 4 1 11.5t1 11.5q0 20 2 28v92q-4 54 -4 97q-4 62 -4 110l-6 113 l-6 98q0 7 -1 20t-1 19v14q-7 2 -68 29h2q-18 6 -73 41q-34 30 -56 72l2 -2q-31 48 -34 92q-9 52 -9 69zM639 -18l8 2h-4z" />
<glyph unicode="&#xb7;" horiz-adv-x="288" d="M49 541q-9 30 2 59q5 15 17 31q20 35 63 35q33 0 59 -23q32 -23 35 -63q0 -42 -26 -68q-30 -27 -68 -27q-44 0 -80 45l-2 17v-6z" />
<glyph unicode="&#xba;" horiz-adv-x="1005" d="M420 989q5 130 73 231t181 111q67 2 123 -27.5t86 -84.5q25 -43 37 -90t12 -140q0 -65 -14 -124t-43 -109.5t-78.5 -81t-114.5 -31.5q-62 -2 -108 16.5t-82 67.5q-34 43 -54.5 116t-17.5 146zM539 1038q-26 -123 26 -221q21 -34 46.5 -50t66.5 -13q105 0 135 147 q27 115 0 215q-13 44 -40 68t-73 33q-62 7 -102.5 -46.5t-58.5 -132.5z" />
<glyph unicode="&#xbf;" horiz-adv-x="645" d="M63 918h3q-32 37 3.5 91t86.5 85q62 32 143 32q65 0 115 -26q52 -26 83 -53t62 -68q47 -64 47 -170q0 -43 -22 -113q-11 -34 -33 -65t-53.5 -57t-56 -43t-58.5 -37q-56 -36 -57 -39q-6 -15 -6.5 -21.5t2.5 -25.5q24 -126 -64 -150q-58 -17 -83.5 8t-37.5 74q-8 40 -8 92 q0 68 23 115l-2 -2q20 41 43.5 60.5t64.5 37.5l-2 -2q39 22 57.5 33t46.5 32t40.5 38t21 41.5t6.5 52.5q-7 44 -41.5 76t-71.5 32h-16h-10h-10t-9.5 -0.5t-10.5 -1t-9.5 -2t-11 -3.5t-11 -5t-13 -7t-13.5 -9q-88 -60 -138 0zM152 98q0 40 26 66q29 29 70 29q98 0 112 -78v2 q17 -62 -15.5 -93.5t-76.5 -31.5q-31 0 -52.5 10t-47.5 35q-16 19 -16 61z" />
<glyph unicode="&#xc0;" d="M8 98q7 37 123 488l55 200q17 57 45.5 162t32.5 119q10 24 37.5 40t63.5 19t69.5 -26t42.5 -58l23 -75l65 -242l60 -197v2l63 -194q1 -1 11 -26.5t20 -52.5t12 -30q29 -57 33 -75l-2 2l6 -17q0 -1 3 -10.5t3.5 -12.5t2.5 -11.5t2 -12.5v-11.5t-1.5 -13t-4.5 -12t-7 -12.5 q-38 -47 -82 -47q-31 0 -78 51l2 -2q-15 20 -49 129v-2l-67 166l-39 104h-84l-93 -8l-10 -41l-80 -307q-9 -50 -57.5 -76t-81.5 -4h2q-54 36 -41 94zM167.5 1510.5q-0.5 14.5 9.5 30t32 28.5q32 12 71 -1t60 -34l133 -125l39 -63v2q10 -32 -1.5 -62.5t-29.5 -44.5 q-34 -31 -69 -24l-76 63h2q-108 101 -137.5 136.5t-32.5 62.5q0 17 -0.5 31.5zM305 596l125 8l-12 39q-29 74 -44.5 130t-17.5 72t-4 15q-3 1 -14 -58.5t-21.5 -124.5t-11.5 -81z" />
<glyph unicode="&#xc1;" horiz-adv-x="829" d="M35 98q7 37 123 488l55 200q17 57 45.5 162t32.5 119q22 52 100 59q36 3 70 -26t43 -58l22 -75l66 -242l59 -197v2l64 -194q1 -1 11 -26.5t20 -52.5t12 -30q29 -57 33 -75l-3 2l7 -17q0 -1 3 -10.5t3.5 -12.5t2.5 -11.5t2 -12.5v-11.5t-1.5 -13t-4.5 -12t-7 -12.5 q-38 -47 -82 -47q-31 0 -78 51l2 -2q-15 20 -49 129v-2l-68 166l-39 104h-84l-92 -8l-10 -41l-80 -307q-9 -50 -57.5 -76t-81.5 -4h2q-54 36 -41 94zM266 1315q0 7 2 13.5t3.5 10.5t5 10t5 8t6.5 8.5t7 8.5v-2l12 19q12 22 45 69q32 40 49 58q23 25 63 43t68 6 q30 -13 39 -33t9 -49q0 -35 -27 -76l-27 -33l-20 -20l-78 -107v2q-9 -15 -23.5 -25.5t-38 -15t-51.5 8.5h2q-37 14 -46.5 36t-4.5 60zM332 596l125 8l-13 39q-29 74 -44 130t-17 72t-4 15q-3 1 -14 -58.5t-21.5 -124.5t-11.5 -81z" />
<glyph unicode="&#xc2;" horiz-adv-x="841" d="M47 98q7 37 123 488l55 200q17 57 45.5 162t32.5 119q22 52 100 59q36 3 70 -26t43 -58l23 -75l65 -242l60 -197v2l63 -194q1 -1 11 -26.5t20 -52.5t12 -30q29 -57 33 -75l-2 2l6 -17q0 -1 3 -10.5t3.5 -12.5t2.5 -11.5t2 -12.5v-11.5t-1.5 -13t-4.5 -12t-7 -12.5 q-38 -47 -82 -47q-31 0 -78 51l2 -2q-15 20 -49 129v-2l-68 166l-38 104h-84l-93 -8l-10 -41l-80 -307q-9 -50 -57.5 -76t-81.5 -4h2q-54 36 -41 94zM188 1315q6 27 146 176q9 11 28 26t31 15q8 0 26.5 -14t32.5 -28l15 -15q103 -122 106 -127q34 -77 -16 -119h2 q-31 -20 -50 -20t-46 14h2q-7 4 -14.5 10t-17 16.5t-16 18t-19 22.5t-19.5 23l-51 -64q-36 -26 -66 -26q-24 0 -37 5.5t-26 24.5q-16 21 -11 62zM344 596l125 8l-12 39q-29 74 -44.5 130t-17.5 72t-4 15q-3 1 -14 -58.5t-21.5 -124.5t-11.5 -81z" />
<glyph unicode="&#xc3;" d="M8 98q7 37 123 488l55 200q17 57 45.5 162t32.5 119q10 24 37.5 40t63.5 19t69.5 -26t42.5 -58l23 -75l65 -242l60 -197v2l63 -194q1 -1 11 -26.5t20 -52.5t12 -30q29 -57 33 -75l-2 2l6 -17q0 -1 3 -10.5t3.5 -12.5t2.5 -11.5t2 -12.5v-11.5t-1.5 -13t-4.5 -12t-7 -12.5 q-38 -47 -82 -47q-31 0 -78 51l2 -2q-15 20 -49 129v-2l-67 166l-39 104h-84l-93 -8l-10 -41l-80 -307q-9 -50 -57.5 -76t-81.5 -4h2q-54 36 -41 94zM111 1370q0 36 28 80q57 80 137 80q34 -3 75.5 -31t121.5 -98q33 6 41 59q15 60 70 66q53 1 74.5 -40.5t9.5 -96.5 q-18 -69 -76.5 -123t-120.5 -47q-32 6 -62 26t-126 101q-1 -4 -8.5 -27.5t-11.5 -31t-14 -22t-23.5 -18.5t-32.5 -2q-35 3 -64 35q-25 35 -18 90zM305 596l125 8l-12 39q-29 74 -44.5 130t-17.5 72t-4 15q-3 1 -14 -58.5t-21.5 -124.5t-11.5 -81z" />
<glyph unicode="&#xc4;" d="M16 90q7 37 123 488l56 200q17 58 45 163t32 118q10 24 37.5 40t63.5 19t69.5 -26t42.5 -58l23 -76l65 -241l60 -197v2l63 -194q1 -1 11 -26.5t20 -52.5t12 -30q29 -58 33 -76l-2 2l6 -16q0 -1 3 -10.5t3.5 -12.5t2.5 -11.5t2 -12.5v-11.5t-1.5 -13t-4.5 -12t-7 -12.5 q-38 -47 -82 -47q-31 0 -78 51l2 -2q-15 20 -49 129v-2l-67 166l-39 104h-84l-92 -8l-11 -41l-79 -307q-9 -50 -58 -76t-82 -4h2q-54 36 -41 94zM129 1260q-6 43 2 69q7 18 23 45q30 35 79 35q33 0 72 -27q40 -28 43 -82q0 -47 -35 -79q-30 -33 -82 -33q-51 0 -88 45v-2 l-6 8q-8 8 -8 21zM313 588l125 8l-12 39q-29 74 -44.5 130t-17.5 72t-4 15q-3 1 -14 -58.5t-21.5 -124.5t-11.5 -81zM430 1268q-13 59 21 112q30 37 81 37q33 0 70 -26q42 -31 45 -82q0 -49 -33 -78q-32 -35 -84 -35q-53 0 -96 53l-4 21v-2z" />
<glyph unicode="&#xc5;" d="M8 98q7 37 123 488l55 200q17 57 45.5 162t32.5 119q10 24 37.5 40t63.5 19t69.5 -26t42.5 -58l23 -75l65 -242l60 -197v2l63 -194q1 -1 11 -26.5t20 -52.5t12 -30q29 -57 33 -75l-2 2l6 -17q0 -1 3 -10.5t3.5 -12.5t2.5 -11.5t2 -12.5v-11.5t-1.5 -13t-4.5 -12t-7 -12.5 q-38 -47 -82 -47q-31 0 -78 51l2 -2q-15 20 -49 129v-2l-67 166l-39 104h-84l-93 -8l-10 -41l-80 -307q-9 -50 -57.5 -76t-81.5 -4h2q-54 36 -41 94zM184 1411q15 44 23 59q19 38 35 54q27 27 61 39q29 16 76 16q31 0 63 -14h-4q24 -6 68 -33q33 -21 59 -51q27 -45 29 -70 q6 -67 -49 -141q-11 -13 -22.5 -24.5t-22.5 -21.5t-15 -14q-38 -20 -63 -24q-10 0 -14 -2h-23q-51 0 -88 18q-35 17 -72 60q-32 41 -39 69q-11 37 -2 80zM305 596l125 8l-12 39q-29 74 -44.5 130t-17.5 72t-4 15q-3 1 -14 -58.5t-21.5 -124.5t-11.5 -81zM332 1343l22 -12h-2 q12 -6 31 -6q8 0 14 4q11 5 15 12l16 27l16 31v2q2 6 2 8q-2 2 -2 4l-22 17q-14 9 -35 12q-15 -3 -18 -6q-17 -11 -25 -31q-8 -16 -12 -43q-3 -14 0 -19z" />
<glyph unicode="&#xc6;" horiz-adv-x="1277" d="M46.5 85q-0.5 22 3 39t9.5 28l15 26q14 26 34.5 83.5t43.5 130t24 75.5q98 284 217 551l6 12q29 68 47 80q4 6 347 6q51 0 136 -1t105 -1h31q89 -4 98 -70q9 -73 -53 -100q-29 -14 -121 -18h-26q-31 0 -88.5 -1t-104 -2t-49.5 -1l-8 -244q-2 -55 -2 -78q11 0 69 -4 q265 -10 301 -10q68 -9 80 -60q6 -32 -12 -65.5t-68 -40.5q-72 -8 -125 -6q-16 0 -110 4h2q-136 4 -137 4v-4q-2 -61 -2 -215v-33q10 0 35.5 1t61 2.5t56.5 2.5q14 0 29 1t16 1q20 2 72 2q53 0 127 -8h-2q8 -3 10.5 -4t13 -6.5t16 -12t11.5 -18.5t8 -27q4 -37 -20 -66 t-56 -34q-6 0 -10 -2l-534 4q-8 42 -19 402h-131l-59 -146l-37 -82q-12 -27 -72 -135q0 -4 -11 -15t-36 -20t-67 6q-31 9 -47.5 28t-17 41zM391 598q3 0 29 -1t45.5 -1.5t30.5 0.5h16l18 315h-8zM543 0l2 -2zM543 2v4v-4z" />
<glyph unicode="&#xc7;" horiz-adv-x="737" d="M39 473q-6 138 18 264v-2q18 123 84 248q33 59 100.5 112t137.5 66q80 10 178 -35l12 -8q34 -21 77.5 -80t37.5 -88q-8 -44 -47.5 -58.5t-95.5 21.5h2q-32 19 -37 27h2q-43 37 -76 37q-20 0 -47 -12q-38 -19 -63 -45t-34 -44.5t-18 -46.5q-38 -116 -45 -180 q-8 -52 -8 -112q0 -28 4 -86q5 -50 21.5 -106t38.5 -91q27 -40 46.5 -60t43.5 -26q69 -21 118 33h-2l21 24l14 27q26 39 70 39q33 0 51 -15q15 -7 27 -30q21 -37 2 -80q-11 -26 -39 -66q-99 -111 -246 -114q-52 0 -100.5 23t-71.5 46l-8 8l-11 11t-13 13.5t-15 17t-15.5 19 t-16.5 23t-15.5 25t-16 28.5t-14.5 31q-21 49 -31.5 90.5t-13 67t-6.5 84.5z" />
<glyph unicode="&#xc8;" horiz-adv-x="804" d="M69.5 268q0.5 77 1.5 160t1 92q0 72 1 126.5t1 58.5q0 31 1 92t1 92v67q0 38 0.5 53.5t2 44t7 42.5t14.5 20q22 12 211 12q54 0 148 -1t116 -1h39q90 0 99 -67q6 -76 -54 -101q-38 -16 -118 -16h-27q-136 -8 -244 -8l-6 -207q-1 -24 -2 -42.5t-1.5 -26.5t-0.5 -11 q22 0 96 -4q271 -10 273 -10q65 -8 86 -72q6 -27 -14 -56t-72 -36q-63 -8 -121 -8q-225 10 -248 10v-2q-1 -39 -2 -149t-2 -142q139 0 199 6h71q8 0 31 -0.5t34.5 -1t32 -2.5t32.5 -6t25.5 -11t21 -18t10.5 -26q8 -41 -28.5 -70t-86 -39t-92.5 -6l-430 -4q-4 28 -5.5 109.5 t-1 158.5zM220.5 1514.5q-0.5 14.5 9.5 30t32 28.5q32 12 71 -1t60 -34l133 -125l39 -63v2q10 -32 -1 -62.5t-29 -44.5q-34 -31 -70 -24l-76 63h2q-108 101 -137.5 136.5t-32.5 62.5q0 17 -0.5 31.5z" />
<glyph unicode="&#xc9;" horiz-adv-x="804" d="M69.5 268q0.5 77 1.5 160t1 92q0 72 1 126.5t1 58.5q0 31 1 92t1 92v67q0 38 0.5 53.5t2 44t7 42.5t14.5 20q22 12 211 12q54 0 148 -1t116 -1h39q90 0 99 -67q6 -76 -54 -101q-38 -16 -118 -16h-27q-136 -8 -244 -8l-6 -207q-1 -24 -2 -42.5t-1.5 -26.5t-0.5 -11 q22 0 96 -4q271 -10 273 -10q65 -8 86 -72q6 -27 -14 -56t-72 -36q-63 -8 -121 -8q-225 10 -248 10v-2q-1 -39 -2 -149t-2 -142q139 0 199 6h71q8 0 31 -0.5t34.5 -1t32 -2.5t32.5 -6t25.5 -11t21 -18t10.5 -26q8 -41 -28.5 -70t-86 -39t-92.5 -6l-430 -4q-4 28 -5.5 109.5 t-1 158.5zM242 1319q0 6 1 11t3 10.5t3 8t4.5 8t5 7t6 7.5t5.5 7v-2l13 19q12 22 45 69q32 40 49 58q23 25 63 43t68 6q21 -9 32 -24t13 -26.5t2 -31.5q0 -35 -27 -76l-26 -33l-21 -20l-78 -107v2q-9 -15 -23.5 -25.5t-37.5 -15t-51 8.5h2q-37 14 -46.5 36t-4.5 60z" />
<glyph unicode="&#xca;" horiz-adv-x="831" d="M95.5 268q0.5 77 1.5 160t1 92q0 72 1 126.5t1 58.5q0 31 1 92t1 92v67q0 34 0.5 52.5t2.5 45t7.5 41.5t14.5 21q22 12 211 12q54 0 148 -1t116 -1h39q89 0 98 -67q3 -36 -10.5 -62.5t-42.5 -38.5q-38 -16 -119 -16h-26q-136 -8 -244 -8l-6 -207q-1 -24 -2 -42.5 t-1.5 -26.5t-0.5 -11q22 0 96 -4q269 -10 272 -10q65 -8 86 -72q6 -27 -14 -56t-72 -36q-63 -8 -120 -8q-225 10 -248 10v-2q-1 -39 -2 -149t-2 -142q138 0 198 6h72q8 0 31 -0.5t34.5 -1t32 -2.5t32 -6t25 -11t21 -18t10.5 -26q8 -41 -28.5 -70t-86 -39t-92.5 -6l-430 -4 q-4 28 -5.5 109.5t-1 158.5zM217 1305q6 28 145 176q9 11 28.5 26t31.5 15q8 0 26.5 -14.5t33.5 -29.5l14 -14q103 -122 106 -127q34 -77 -16 -118h2q-44 -34 -96 -7h2q-9 5 -20 15.5t-18.5 19t-24 28t-23.5 28.5l-52 -64q-38 -27 -65 -27q-24 0 -37.5 6t-26.5 25 q-15 20 -10 62z" />
<glyph unicode="&#xcb;" horiz-adv-x="817" d="M81.5 268q0.5 77 1.5 160t1 92q0 72 1 126.5t1 58.5q0 31 1 92t1 92v67q0 34 0.5 52.5t2.5 45t7.5 41.5t14.5 21q22 12 211 12q54 0 148 -1t116 -1h39q89 0 98 -67q3 -36 -10.5 -62.5t-42.5 -38.5q-38 -16 -119 -16h-27q-136 -8 -243 -8l-7 -207q-1 -24 -2 -42.5 t-1.5 -26.5t-0.5 -11q23 0 97 -4q269 -10 272 -10q65 -8 86 -72q6 -27 -14 -56t-72 -36q-63 -8 -121 -8q-225 10 -248 10v-2q-1 -39 -2 -149t-2 -142q139 0 199 6h72q8 0 31 -0.5t34.5 -1t32 -2.5t32 -6t25 -11t21 -18t10.5 -26q8 -41 -28.5 -70t-86 -39t-92.5 -6l-430 -4 q-4 28 -5.5 109.5t-1 158.5zM152 1303q-6 37 6 79q6 20 14 27q38 41 82 41q32 0 74 -27q39 -31 39 -80q0 -43 -33 -79q-37 -33 -82 -33q-46 0 -88 45v-2l-4 10q-8 8 -8 19zM449 1313q-12 67 20 108q27 37 80 37q31 0 72 -26l-3 2q43 -24 46 -82q0 -45 -33 -78 q-36 -33 -82 -33q-55 0 -88 41q-6 6 -6 8q-6 6 -6 23z" />
<glyph unicode="&#xcc;" horiz-adv-x="432" d="M36.5 1504.5q-0.5 14.5 9.5 30t32 28.5q32 12 71 -1t60 -34l133 -125l39 -64v2q10 -32 -1.5 -61.5t-29.5 -44.5q-35 -32 -69 -25l-76 64h2q-108 101 -137.5 136.5t-32.5 62.5q0 17 -0.5 31.5zM127 514q0 68 6 162l6 194q0 4 -0.5 20t-0.5 38t1 49q1 31 1.5 45.5t3.5 35.5 t9 30t17 19t27.5 13.5t40.5 3.5q27 0 44.5 -12.5t24 -35t9 -42.5t3.5 -45v-8q0 -1 0.5 -119.5t-0.5 -154.5q-4 -265 -2 -553v2q1 -7 2 -18t-1.5 -39t-11 -50t-32.5 -39.5t-61 -17.5q-26 0 -43 12t-24 34t-9 39.5t-2 43.5q-8 81 -8 393z" />
<glyph unicode="&#xcd;" horiz-adv-x="397" d="M59 1323q0 7 2 13.5t3.5 10.5t5 10t5 8t6.5 8.5t7 8.5v-2l12 19q12 22 45 69q28 36 50 58q23 25 63 43t68 6q21 -9 32 -24t13 -26.5t2 -31.5q0 -35 -27 -76l-27 -33l-20 -20l-78 -107v3q-9 -15 -23.5 -26t-38 -15.5t-50.5 8.5h2q-37 14 -47 36t-5 60zM106 514q0 52 7 162 l6 194q0 4 -0.5 20t-0.5 38t1 49q1 28 1 39.5t2.5 32t6 28t10.5 19.5t17 16.5t25.5 8t35.5 3.5q19 0 33.5 -6t23 -20t13.5 -24t7.5 -32.5t3 -30t1.5 -30.5q0 -1 0.5 -119.5t-0.5 -154.5q-4 -265 -2 -553v2q1 -7 2 -18t-1.5 -39t-11 -50t-32.5 -39.5t-61 -17.5q-26 0 -43 12 t-24 34t-9 39.5t-2 43.5q-9 91 -9 393z" />
<glyph unicode="&#xce;" horiz-adv-x="485" d="M37 1309q6 28 145 176q9 11 28.5 26t31.5 15q8 0 26 -14.5t32 -29.5l15 -14q22 -26 49.5 -58t40.5 -47t17 -22q34 -77 -16 -118h2q-43 -34 -97 -6h2q-7 4 -14.5 10t-17 16.5t-16 18t-19 22.5t-19.5 23l-51 -64q-36 -26 -65 -26q-24 0 -37.5 5.5t-26.5 24.5q-15 20 -10 62 zM158 514q0 68 6 162l6 194q0 4 -0.5 20t-0.5 38t1 49q1 28 1 39.5t2.5 32t6 28.5t10.5 19.5t17 16t25.5 8t35.5 3.5q19 0 33.5 -6t23 -20t13.5 -24t7.5 -32.5t3 -30t1.5 -30.5q0 -1 1 -119.5t-1 -154.5q-4 -265 -2 -553v2q1 -7 2 -18t-1.5 -39t-11 -50t-32.5 -39.5 t-61 -17.5q-26 0 -43 12t-24 34t-9 39.5t-2 43.5q-8 81 -8 393z" />
<glyph unicode="&#xcf;" horiz-adv-x="606" d="M59 1298q-5 36 7 80q6 20 14 27q38 41 82 41q32 0 74 -27q38 -30 38 -80q0 -44 -32 -79q-37 -33 -82 -33q-46 0 -88 45v-2l-4 10q-9 9 -9 18zM213 514q0 68 6 162l6 194q0 4 -0.5 20t-0.5 38t1 49q1 31 1.5 45.5t3.5 35.5t9 30t17 19t27.5 13.5t40.5 3.5q19 0 33.5 -6 t23 -20t13.5 -24t7.5 -32.5t3 -30t1.5 -30.5q0 -1 1 -119.5t-1 -154.5q-5 -305 -3 -553v2q1 -7 2 -18t-1.5 -39t-11 -50t-32.5 -39.5t-61 -17.5q-26 0 -43 12t-24 34t-9 39.5t-2 43.5q-8 81 -8 393zM356 1309q-12 66 21 108q27 37 80 37q29 0 71 -27l-2 3q42 -23 45 -82 q0 -46 -32 -78q-36 -33 -82 -33q-55 0 -88 41q-7 7 -7 8q-6 6 -6 23z" />
<glyph unicode="&#xd1;" horiz-adv-x="935" d="M90 1071q1 6 4 14.5t21.5 25.5t46.5 22q69 15 129 -70l65 -100q84 -136 157.5 -262t104.5 -184l31 -58q-16 172 -16 569q0 104 80 117q49 7 73.5 -11t38.5 -63q7 -32 11 -162q0 -86 2 -216.5t2 -184.5q4 -366 6 -391q0 -4 0.5 -15.5t0.5 -18.5t-2 -17t-7 -19 q-11 -22 -28 -33.5t-54 -11.5q-35 2 -55.5 11t-43.5 34q-17 28 -213 391l-55 111q-70 126 -115 201q0 -73 5 -175l2 -92q0 -398 -11 -430q-8 -19 -14.5 -30t-26 -22t-47.5 -11q-51 0 -68.5 23.5t-19.5 60.5v86q3 311 0 583q0 48 -0.5 98.5t-1 83.5t-0.5 38q-2 33 -2 108z M186 1368q0 35 29 80q57 80 137 80q34 -3 75.5 -31t121.5 -98q33 6 41 59q15 60 69 66q53 1 74.5 -41t9.5 -97q-18 -69 -76 -122.5t-120 -46.5q-33 7 -64 26.5t-125 99.5q-2 -6 -7.5 -23t-8.5 -25t-10 -21t-15 -19t-20.5 -10t-28.5 -2q-34 3 -63 35q-26 36 -19 90z" />
<glyph unicode="&#xd2;" horiz-adv-x="962" d="M55 565q3 83 22.5 163t56 153t87 130t119.5 94t149 44q114 3 209.5 -48t147.5 -145q29 -52 44 -89t27.5 -115.5t12.5 -188.5q0 -111 -24.5 -212.5t-73.5 -187t-133.5 -137.5t-194.5 -53q-107 -3 -186 29t-140 115q-58 75 -92.5 199.5t-30.5 248.5zM258 647 q-45 -202 47 -379v2q33 -59 77 -86.5t116 -23.5q95 1 149 66.5t80 187.5q49 202 0 366q-23 76 -68.5 116.5t-123.5 55.5q-55 6 -102.5 -18t-81 -70.5t-56.5 -100.5t-37 -116zM318.5 1512.5q-0.5 14.5 9.5 30t32 28.5q32 12 71.5 -1t60.5 -34l133 -125l39 -63v2 q10 -32 -1.5 -62.5t-29.5 -44.5q-34 -31 -70 -24l-76 63h2q-108 101 -137.5 136.5t-32.5 62.5q0 17 -0.5 31.5z" />
<glyph unicode="&#xd3;" horiz-adv-x="974" d="M68 565q3 83 22.5 163t56 153t87 130t119.5 94t149 44q114 3 209 -48t147 -145q29 -52 44 -89t27.5 -115.5t12.5 -188.5q0 -111 -24.5 -212.5t-73.5 -187t-133.5 -137.5t-194.5 -53q-107 -3 -186 29t-140 115q-58 74 -92 198.5t-30 249.5zM270 647q-45 -202 47 -379v2 q33 -59 77 -86.5t116 -23.5q95 1 149 66.5t80 187.5q49 202 0 366q-23 76 -68.5 116.5t-123.5 55.5q-55 6 -102.5 -18t-81 -70.5t-56.5 -100.5t-37 -116zM352 1317q0 7 2 13.5t3.5 10.5t5 10t5 8t6.5 8.5t7 8.5v-2l12 19q12 22 45 69q32 41 49 58q23 25 63 43t68 6 q30 -13 39 -33t9 -49q0 -35 -27 -76l-27 -33l-20 -20l-78 -107v2q-9 -15 -23.5 -25.5t-38 -15t-51.5 8.5h2q-37 14 -46.5 36t-4.5 60z" />
<glyph unicode="&#xd4;" horiz-adv-x="974" d="M68 565q3 83 22.5 163t56 153t87 130t119.5 94t149 44q114 3 209 -48t147 -145q29 -52 44 -89t27.5 -115.5t12.5 -188.5q0 -111 -24.5 -212.5t-73.5 -187t-133.5 -137.5t-194.5 -53q-107 -3 -186 29t-140 115q-58 74 -92 198.5t-30 249.5zM270 647q-45 -202 47 -379v2 q33 -59 77 -86.5t116 -23.5q95 1 149 66.5t80 187.5q49 202 0 366q-23 76 -68.5 116.5t-123.5 55.5q-55 6 -102.5 -18t-81 -70.5t-56.5 -100.5t-37 -116zM301 1305q6 28 145 176q9 11 28.5 26t31.5 15q8 0 26.5 -14.5t33.5 -29.5l14 -14q103 -122 106 -127q34 -77 -16 -118 h2q-44 -34 -97 -7h3q-9 5 -20 15.5t-18.5 19t-24 28t-23.5 28.5l-52 -64q-38 -27 -65 -27q-24 0 -37.5 6t-26.5 25q-15 20 -10 62z" />
<glyph unicode="&#xd5;" horiz-adv-x="923" d="M16 565q4 104 34.5 203t83.5 181.5t135.5 136.5t181.5 63q114 3 209 -48t147 -145q29 -52 44 -89t27.5 -115.5t12.5 -188.5q0 -111 -24.5 -212.5t-73.5 -187t-133.5 -137.5t-194.5 -53q-107 -3 -186 29t-140 115q-58 75 -92.5 199.5t-30.5 248.5zM170 1368q0 35 29 80 q57 80 137 80q34 -3 75 -30.5t121 -98.5q33 6 41 59q15 60 70 66q53 1 74.5 -41t9.5 -97q-18 -69 -76.5 -122.5t-120.5 -46.5q-33 6 -63 26t-125 100q-2 -6 -7.5 -23t-8.5 -25t-10 -21t-15 -19t-20.5 -10t-28.5 -2q-35 3 -64 35q-25 35 -18 90zM219 647q-45 -202 47 -379v2 q33 -59 77 -86.5t116 -23.5q95 1 149 66.5t80 187.5q49 202 0 366q-23 76 -68.5 116.5t-123.5 55.5q-55 6 -102.5 -18t-81 -70.5t-56.5 -100.5t-37 -116z" />
<glyph unicode="&#xd6;" horiz-adv-x="923" d="M16 565q4 104 34.5 203t83.5 181.5t135.5 136.5t181.5 63q114 3 209 -48t147 -145q29 -52 44 -89t27.5 -115.5t12.5 -188.5q0 -111 -24.5 -212.5t-73.5 -187t-133.5 -137.5t-194.5 -53q-107 -3 -186 29t-140 115q-58 75 -92.5 199.5t-30.5 248.5zM199 1300q-6 38 6 80 q7 19 14 27q38 41 82 41q32 0 74 -27q39 -31 39 -80q0 -43 -33 -79q-37 -33 -82 -33q-46 0 -88 45v-2l-4 10q-8 8 -8 18zM219 647q-45 -202 47 -379v2q33 -59 77 -86.5t116 -23.5q95 1 149 66.5t80 187.5q49 202 0 366q-23 76 -68.5 116.5t-123.5 55.5q-55 6 -102.5 -18 t-81 -70.5t-56.5 -100.5t-37 -116zM496 1311q-12 67 20 108q27 37 80 37q31 0 72 -26l-2 2q42 -23 45 -82q0 -45 -33 -78q-36 -33 -82 -33q-55 0 -88 41q-6 6 -6 8q-6 6 -6 23z" />
<glyph unicode="&#xd8;" horiz-adv-x="923" />
<glyph unicode="&#xd9;" horiz-adv-x="917" d="M92 776q-2 216 16.5 294.5t81.5 78.5q75 0 100.5 -43t16.5 -152l-14 -292q-5 -114 20 -283q32 -208 170 -211q59 -1 95.5 34.5t60.5 112.5q14 63 14 299l-2 242q-1 26 -1.5 41t0 49.5t3.5 57t10.5 52t19 47t31 30t44.5 12.5q45 0 66 -35t32 -100l4 -154q0 -141 -5.5 -310 t-12.5 -231q-7 -41 -19 -79.5t-36.5 -82.5t-58 -78.5t-85.5 -61.5t-115 -36q-83 -13 -154.5 6.5t-120.5 63t-81 101t-43 124.5q-24 141 -30.5 231.5t-6.5 272.5zM284.5 1461.5q-0.5 14.5 9.5 30t32 28.5q32 12 71 -1t60 -34l133 -125l39 -64v2q10 -32 -1.5 -61.5 t-29.5 -44.5q-35 -32 -70 -25l-75 64h2q-108 101 -137.5 136.5t-32.5 62.5q0 17 -0.5 31.5z" />
<glyph unicode="&#xda;" horiz-adv-x="917" d="M92 776q-2 216 16.5 294.5t81.5 78.5q75 0 100.5 -43t16.5 -152l-14 -292q-5 -114 20 -283q32 -208 170 -211q59 -1 95.5 34.5t60.5 112.5q14 63 14 299l-2 242q-1 26 -1.5 41t0 49.5t3.5 57t10.5 52t19 47t31 30t44.5 12.5q45 0 66 -35t32 -100l4 -154q0 -141 -5.5 -310 t-12.5 -231q-7 -41 -19 -79.5t-36.5 -82.5t-58 -78.5t-85.5 -61.5t-115 -36q-83 -13 -154.5 6.5t-120.5 63t-81 101t-43 124.5q-24 141 -30.5 231.5t-6.5 272.5zM383 1270q0 7 2 13.5t3.5 10.5t5 10t5 8t6.5 8.5t7 8.5v-2l12 19q12 22 45 69q31 40 49 58q23 25 63 43t68 6 q21 -9 32 -24t13 -26.5t2 -31.5q0 -37 -26 -76l-27 -33l-20 -20l-78 -107v2q-9 -15 -23.5 -25.5t-38 -15t-51.5 8.5h2q-37 14 -46.5 36t-4.5 60z" />
<glyph unicode="&#xdb;" horiz-adv-x="905" d="M80 776q-2 216 16.5 294.5t81.5 78.5q75 0 100.5 -43t16.5 -152l-14 -292q-5 -114 20 -283q32 -208 170 -211q59 -1 95.5 34.5t60.5 112.5q14 63 14 299l-2 242q-1 24 -1.5 35.5t-1 42t2 49t6 46.5t12 45.5t19.5 35.5t29 26.5t40 8.5q45 0 67 -35t32 -100l4 -154 q0 -138 -6 -308t-13 -233q-9 -53 -27.5 -101.5t-53 -100t-94.5 -88t-138 -48.5q-83 -13 -154.5 6.5t-120.5 63t-81 101t-43 124.5q-24 141 -30.5 231.5t-6.5 272.5zM260 1313q6 27 146 176q9 11 28 26t31 15q8 0 26.5 -14t32.5 -28l15 -15q103 -122 106 -127 q34 -77 -16 -119h2q-31 -20 -50 -20t-46 14h2q-7 4 -14.5 10t-17 16.5t-16 18t-19 22.5t-19.5 23l-52 -64q-36 -26 -65 -26q-24 0 -37.5 5.5t-26.5 24.5q-15 20 -10 62z" />
<glyph unicode="&#xdc;" horiz-adv-x="866" d="M41 776q-2 216 16.5 294.5t81.5 78.5q75 0 100.5 -43t16.5 -152l-14 -292q-5 -114 20 -283q32 -208 170 -211q59 -1 95.5 34.5t60.5 112.5q14 63 14 299l-2 242q-1 26 -1.5 41t0 49.5t3.5 57t10.5 52t19 47t31 30t44.5 12.5q45 0 66 -35t32 -100l4 -154q0 -141 -5.5 -310 t-12.5 -231q-7 -41 -19 -79.5t-36.5 -82.5t-58 -78.5t-85.5 -61.5t-115 -36q-83 -13 -154.5 6.5t-120.5 63t-81 101t-43 124.5q-24 141 -30.5 231.5t-6.5 272.5zM184 1313q-6 38 6 80q6 17 15 26q38 41 82 41q32 0 73 -26q39 -31 39 -80q0 -45 -32 -80q-37 -33 -82 -33 q-46 0 -88 45v-2l-4 10q-9 9 -9 19zM481 1323q-12 67 21 109q26 36 80 36q30 0 71 -26l-2 2q42 -23 45 -82q0 -46 -32 -78q-36 -33 -82 -33q-55 0 -88 41q-7 7 -7 8q-6 6 -6 23z" />
<glyph unicode="&#xdd;" horiz-adv-x="796" d="M35 1073.5q10 39.5 45 52.5q32 12 70 -3t63 -50q28 -39 76 -121l61 -108q69 -128 72 -129q3 36 70.5 201t89.5 202q33 44 94 37q31 -4 51 -27t23 -51q3 -18 -14.5 -73.5t-39.5 -102.5l-28 -61l2 2q-158 -330 -158 -367l10 -287q2 -57 2 -94q0 -47 -15.5 -70t-66.5 -30 q-68 -8 -96 51l2 -2q-14 27 -20 111q-2 87 -3 175t-1.5 124.5t-1.5 48.5l-150 272l-125 225q-22 35 -12 74.5zM281 1225q0 6 1 11t3 10.5t3 8t4.5 8t5 7t6 7.5t5.5 7v-2l13 18q15 27 45 70q28 36 49 57q23 25 63 43.5t68 6.5q21 -9 32 -24t13 -26.5t2 -31.5q0 -35 -27 -76 l-26 -33l-21 -20l-78 -107v2q-9 -15 -23.5 -26t-38 -15.5t-50.5 8.5h2q-37 14 -46.5 36.5t-4.5 60.5z" />
<glyph unicode="&#xde;" horiz-adv-x="1705" />
<glyph unicode="&#xdf;" horiz-adv-x="1067" d="M215 106q0 25 1 78.5t1 81.5v25q0 23 2 33v-5q2 35 2 105q0 17 1 51t1 53v66q0 105 -2 156q-2 29 -2 96q0 43 2 59q3 62 25 117q26 62 80 102q58 39 143 45h8h8q48 0 95 -16l-2 2q46 -10 106 -43q50 -23 90 -55q38 -34 60 -70q36 -65 36 -135q0 -36 -12 -82 q-24 -68 -72 -119l-2 -2q0 -2 -2 -2q49 -25 68 -37l49 -41q32 -38 35 -43q14 -22 27 -51q10 -26 14 -59q6 -44 0 -84q-4 -33 -21 -80q-22 -50 -36 -70v2q-37 -53 -39 -55q-1 -1 -13.5 -11.5t-25.5 -19.5q-18 -13 -60 -39l-45 -18l-20 -10q-43 -16 -68 -19q-12 -2 -45 -2 q-4 0 -96 8q-71 17 -105 43v-4q0 -53 2 -82v-6q6 -86 -30 -131q-31 -31 -78 -31q-33 0 -52 24.5t-24 62.5q-2 14 -2 49v16q-2 45 -2 147zM399 860q0 -30 4 -104v-11l5 -61q4 -72 4 -213q0 -15 -1 -47t-1 -49q0 -68 -2 -99q0 -3 -1 -13.5t-1 -14.5q-3 -27 -3 -53q28 16 56 16 q23 0 45 -10h-2q2 0 18 -6.5t31.5 -10t30.5 -2.5q53 3 96 17q27 10 72 49q46 46 43 129q0 29 -13 49q-9 16 -30 37q-4 4 -35 22q-28 14 -56 21q-12 6 -28 6q-24 4 -29 4l-8 2q-2 0 -6.5 1t-5.5 1q-10 2 -33 2q-15 0 -39 8h2q-41 12 -57 35h2q-19 28 -21 41q0 30 15 51 q10 13 28 27l35 18l16 5l19 6l22 8q40 20 64 41q34 27 45 59q15 37 -4 68q-15 25 -19 29l-6 4l-35 28h2q-28 19 -38 23l-31 16l-31 4q-16 4 -18 4q-29 0 -58 -16q-20 -17 -30 -37q-13 -41 -13 -84zM782 647l2 2z" />
<glyph unicode="&#xe0;" d="M25 98q9 50 122 488l56 200q17 57 45.5 162t32.5 119q22 52 100 59q36 3 70 -26t43 -58l22 -75l66 -242l59 -197v2l64 -194q1 -1 11 -26.5t20 -52.5t12 -30q28 -57 32 -75l-2 2l6 -17q0 -1 3 -10.5t3.5 -12.5t2.5 -11.5t2 -12.5v-11.5t-1.5 -13t-4.5 -12t-7 -12.5 q-38 -47 -82 -47q-30 0 -77 51l2 -2q-16 22 -50 129v-2l-67 166l-39 104h-84l-92 -8l-10 -41l-80 -307q-9 -50 -58 -76t-82 -4h3q-54 36 -41 94zM159.5 1512.5q-0.5 14.5 9.5 30t32 28.5q32 12 71 -1t60 -34l133 -125l39 -63v2q10 -32 -1.5 -62.5t-29.5 -44.5 q-34 -31 -70 -24l-75 63h2q-108 101 -137.5 136.5t-32.5 62.5q0 17 -0.5 31.5zM322 596l124 8l-12 39q-29 74 -44 130t-17 72t-4 15q-3 1 -14 -58.5t-21.5 -124.5t-11.5 -81z" />
<glyph unicode="&#xe1;" d="M25 98q9 50 122 488l56 200q17 57 45.5 162t32.5 119q22 52 100 59q36 3 70 -26t43 -58l22 -75l66 -242l59 -197v2l64 -194q1 -1 11 -26.5t20 -52.5t12 -30q28 -57 32 -75l-2 2l6 -17q0 -1 3 -10.5t3.5 -12.5t2.5 -11.5t2 -12.5v-11.5t-1.5 -13t-4.5 -12t-7 -12.5 q-38 -47 -82 -47q-30 0 -77 51l2 -2q-16 22 -50 129v-2l-67 166l-39 104h-84l-92 -8l-10 -41l-80 -307q-9 -50 -58 -76t-82 -4h3q-54 36 -41 94zM268 1321q0 7 2 13.5t3.5 10.5t5 10t5 8t6.5 8.5t7 8.5v-2l12 19q12 22 45 69q31 41 49 58q23 25 63.5 43t68.5 6q21 -9 32 -24 t13 -26.5t2 -31.5q0 -35 -27 -76l-27 -33l-20 -20l-78 -107v2q-9 -15 -23.5 -25.5t-38 -15t-51.5 8.5h2q-37 14 -46.5 36t-4.5 60zM322 596l124 8l-12 39q-29 74 -44 130t-17 72t-4 15q-3 1 -14 -58.5t-21.5 -124.5t-11.5 -81z" />
<glyph unicode="&#xe2;" d="M25 98q9 50 122 488l56 200q17 57 45.5 162t32.5 119q22 52 100 59q36 3 70 -26t43 -58l22 -75l66 -242l59 -197v2l64 -194q1 -1 11 -26.5t20 -52.5t12 -30q28 -57 32 -75l-2 2l6 -17q0 -1 3 -10.5t3.5 -12.5t2.5 -11.5t2 -12.5v-11.5t-1.5 -13t-4.5 -12t-7 -12.5 q-38 -47 -82 -47q-30 0 -77 51l2 -2q-16 22 -50 129v-2l-67 166l-39 104h-84l-92 -8l-10 -41l-80 -307q-9 -50 -58 -76t-82 -4h3q-54 36 -41 94zM156 1311q6 28 145 176q9 11 28 26t31 15q8 0 26.5 -14.5t33.5 -29.5l14 -14q22 -26 49.5 -58t40.5 -47t17 -22 q34 -76 -17 -118h2q-31 -20 -50 -20t-46 14h2q-7 4 -14.5 10t-17 16.5t-16 18t-19 22.5t-19.5 23l-51 -64q-36 -26 -66 -26q-24 0 -37 5.5t-26 24.5q-15 20 -10 62zM322 596l124 8l-12 39q-29 74 -44 130t-17 72t-4 15q-3 1 -14 -58.5t-21.5 -124.5t-11.5 -81z" />
<glyph unicode="&#xe3;" d="M25 98q9 50 122 488l56 200q17 57 45.5 162t32.5 119q22 52 100 59q36 3 70 -26t43 -58l22 -75l66 -242l59 -197v2l64 -194q1 -1 11 -26.5t20 -52.5t12 -30q28 -57 32 -75l-2 2l6 -17q0 -1 3 -10.5t3.5 -12.5t2.5 -11.5t2 -12.5v-11.5t-1.5 -13t-4.5 -12t-7 -12.5 q-38 -47 -82 -47q-30 0 -77 51l2 -2q-16 22 -50 129v-2l-67 166l-39 104h-84l-92 -8l-10 -41l-80 -307q-9 -50 -58 -76t-82 -4h3q-54 36 -41 94zM111 1368q0 36 28 80q57 80 137 80q34 -3 75.5 -31t121.5 -98q33 6 41 59q15 60 70 66q53 1 74.5 -41t9.5 -97 q-18 -69 -76.5 -122.5t-120.5 -46.5q-33 6 -63 26t-125 100q-2 -6 -7.5 -23t-8.5 -25t-10 -21t-15 -19t-20.5 -10t-28.5 -2q-35 3 -64 35q-25 35 -18 90zM322 596l124 8l-12 39q-29 74 -44 130t-17 72t-4 15q-3 1 -14 -58.5t-21.5 -124.5t-11.5 -81z" />
<glyph unicode="&#xe4;" d="M25 98q9 50 122 488l56 200q17 57 45.5 162t32.5 119q22 52 100 59q36 3 70 -26t43 -58l22 -75l66 -242l59 -197v2l64 -194q1 -1 11 -26.5t20 -52.5t12 -30q28 -57 32 -75l-2 2l6 -17q0 -1 3 -10.5t3.5 -12.5t2.5 -11.5t2 -12.5v-11.5t-1.5 -13t-4.5 -12t-7 -12.5 q-38 -47 -82 -47q-30 0 -77 51l2 -2q-16 22 -50 129v-2l-67 166l-39 104h-84l-92 -8l-10 -41l-80 -307q-9 -50 -58 -76t-82 -4h3q-54 36 -41 94zM129 1268q-6 38 6 80q5 16 15 26q38 41 81 41q33 0 74 -26q39 -31 39 -80q0 -44 -33 -80q-37 -33 -82 -33q-46 0 -88 45v-2 l-4 10q-8 8 -8 19zM322 596l124 8l-12 39q-29 74 -44 130t-17 72t-4 15q-3 1 -14 -58.5t-21.5 -124.5t-11.5 -81zM426 1278q-12 67 20 108q27 37 80 37q31 0 72 -26l-2 2q42 -23 45 -82q0 -45 -33 -78q-36 -33 -82 -33q-55 0 -88 41q-6 6 -6 8q-6 6 -6 23z" />
<glyph unicode="&#xe5;" d="M25 98q9 50 122 488l56 200q17 57 45.5 162t32.5 119q22 52 100 59q36 3 70 -26t43 -58l22 -75l66 -242l59 -197v2l64 -194q1 -1 11 -26.5t20 -52.5t12 -30q28 -57 32 -75l-2 2l6 -17q0 -1 3 -10.5t3.5 -12.5t2.5 -11.5t2 -12.5v-11.5t-1.5 -13t-4.5 -12t-7 -12.5 q-38 -47 -82 -47q-30 0 -77 51l2 -2q-16 22 -50 129v-2l-67 166l-39 104h-84l-92 -8l-10 -41l-80 -307q-9 -50 -58 -76t-82 -4h3q-54 36 -41 94zM188 1413q16 47 23 60q18 36 35 53q27 27 61 39q29 16 76 16q31 0 63 -14h-4q24 -6 68 -33q33 -21 59 -51q27 -45 29 -70 q6 -67 -49 -141q-11 -13 -22.5 -24.5t-22.5 -21.5t-15 -14q-37 -20 -63 -24q-10 0 -14 -2h-23q-51 0 -88 18q-35 17 -72 60q-32 41 -39 69q-11 37 -2 80zM322 596l124 8l-12 39q-29 74 -44 130t-17 72t-4 15q-3 1 -14 -58.5t-21.5 -124.5t-11.5 -81zM336 1346l22 -13h-2 q12 -6 31 -6q8 0 14 4q11 5 15 12l16 27l17 31v2q2 6 2 8q-2 2 -2 4l-23 17q-14 9 -35 12q-15 -3 -18 -6q-17 -11 -25 -31q-8 -16 -12 -43q-3 -13 0 -18z" />
<glyph unicode="&#xe6;" horiz-adv-x="1038" d="M19 167.5q-1 15.5 5 28.5t10 19.5t13 17.5h-2q4 8 14.5 17.5t25 21t17.5 13.5q23 18 27 20q-28 73 -33 129q-4 23 -4 82q0 67 6 96q15 88 58 166l-2 -2q38 80 96 129q59 46 119 66q65 22 143 22q97 0 168 -32q23 -10 88 -58l25 27q8 12 32 22.5t57.5 11t57.5 -19.5 q25 -22 28.5 -52t-5.5 -52t-23 -41l-53 -43q22 -25 35 -64l2 -14q23 -83 24 -94q2 -20 2 -60q0 -39 -2 -59q-5 -50 -28 -113q-12 -38 -50 -104q-58 -89 -135 -139q-83 -50 -168 -56h-14h-10q-108 0 -181 33q-77 31 -124 76l-5 -4q-39 -35 -53 -43q-30 -27 -74 -27 q-19 0 -29 1.5t-24.5 12.5t-25.5 33q-7 17 -8 32.5zM279 530q-4 -53 2 -84q22 18 61 54t47 43l47 45l94 90l109 104q-16 13 -35 21q-40 14 -80 14q-31 0 -71 -8q-38 -11 -76 -49q-32 -29 -64 -92q-27 -70 -34 -138zM371 276q30 -20 59 -30q50 -15 94 -15q13 0 19 2 q55 3 102 41q53 50 80 113q32 65 35 145q0 50 -12 93q-14 -17 -37 -31l-62 -57h2l-26 -25l-29 -25l-123 -114z" />
<glyph unicode="&#xe7;" horiz-adv-x="698" d="M57 430q-9 128 17 268q26 142 86 256q32 59 95.5 109.5t129.5 58.5q23 1 37.5 2.5t33 -2t28.5 -5.5t24.5 -8.5t21 -9.5t18.5 -9.5t17 -8.5q29 -16 67 -67t34 -74q-3 -18 -19 -35t-39.5 -23.5t-50.5 11.5q-39 25 -74.5 37.5t-70.5 11.5t-64 -28t-47 -80q-48 -155 -57 -218 q-13 -113 -4 -213q5 -57 23.5 -121t43.5 -102q10 -15 19.5 -25t21.5 -16t19.5 -8.5t24.5 -6.5t26 -7q28 -9 71 10.5t66 52.5q16 25 45 25q26 0 39 -10q12 -9 18 -21q13 -26 -2 -57q-7 -15 -37 -64q-81 -90 -202 -102v-23q59 -4 82 -20q30 -21 43 -64q16 -49 2 -92 q-11 -42 -47 -67q-24 -17 -56 -17q-45 0 -78 23q-31 22 -34 51q-3 31 20 37q7 2 20 -4.5t25 -13t26 -5.5t25 15q16 21 14.5 35.5t-10.5 23t-18 8.5t-28 -10t-29 -10q-46 5 -49 45v96q-58 18 -93 53q-1 1 -9.5 9t-15 15t-17.5 19t-21 25t-21 29.5t-21.5 36t-19.5 40.5 q-20 49 -30 91.5t-12.5 67.5t-6.5 85z" />
<glyph unicode="&#xe8;" horiz-adv-x="804" d="M81.5 268q0.5 77 1.5 160t1 92q0 72 1 126.5t1 58.5q0 31 1 92t1 92v67q0 34 0.5 52.5t2.5 45t7.5 41.5t14.5 21q22 12 211 12q54 0 148 -1t116 -1h39q89 0 98 -67q3 -36 -10.5 -62.5t-42.5 -38.5q-38 -16 -119 -16h-27q-136 -8 -243 -8l-7 -207q-1 -24 -2 -42.5 t-1.5 -26.5t-0.5 -11q23 0 97 -4q269 -10 272 -10q65 -8 86 -72q6 -27 -14 -56t-72 -36q-63 -8 -121 -8q-225 10 -248 10v-2q-1 -39 -2 -149t-2 -142q139 0 199 6h72q8 0 31 -0.5t34.5 -1t32 -2.5t32 -6t25 -11t21 -18t10.5 -26q8 -41 -28.5 -70t-86 -39t-92.5 -6l-430 -4 q-4 28 -5.5 109.5t-1 158.5zM220.5 1510.5q-0.5 14.5 9.5 30t32 28.5q32 12 71 -1t60 -34l133 -125l39 -63v2q10 -32 -1 -62.5t-29 -44.5q-34 -31 -70 -24l-76 63h2q-108 101 -137.5 136.5t-32.5 62.5q0 17 -0.5 31.5z" />
<glyph unicode="&#xe9;" horiz-adv-x="804" d="M81.5 268q0.5 77 1.5 160t1 92q0 72 1 126.5t1 58.5q0 31 1 92t1 92v67q0 34 0.5 52.5t2.5 45t7.5 41.5t14.5 21q22 12 211 12q54 0 148 -1t116 -1h39q89 0 98 -67q3 -36 -10.5 -62.5t-42.5 -38.5q-38 -16 -119 -16h-27q-136 -8 -243 -8l-7 -207q-1 -24 -2 -42.5 t-1.5 -26.5t-0.5 -11q23 0 97 -4q269 -10 272 -10q65 -8 86 -72q6 -27 -14 -56t-72 -36q-63 -8 -121 -8q-225 10 -248 10v-2q-1 -39 -2 -149t-2 -142q139 0 199 6h72q8 0 31 -0.5t34.5 -1t32 -2.5t32 -6t25 -11t21 -18t10.5 -26q8 -41 -28.5 -70t-86 -39t-92.5 -6l-430 -4 q-4 28 -5.5 109.5t-1 158.5zM264 1327q0 7 2 13.5t3.5 10.5t5 10t5 8t6.5 8.5t7 8.5v-2l12 19q15 27 45 70q28 36 49 57q23 25 63 43t68 6q30 -13 39 -33t9 -49q0 -35 -27 -76l-27 -32l-20 -21l-78 -106v2q-9 -15 -23.5 -26t-38 -15.5t-51.5 8.5h2q-37 14 -46.5 36t-4.5 60z " />
<glyph unicode="&#xea;" horiz-adv-x="804" d="M81.5 268q0.5 77 1.5 160t1 92q0 72 1 126.5t1 58.5q0 31 1 92t1 92v67q0 34 0.5 52.5t2.5 45t7.5 41.5t14.5 21q22 12 211 12q54 0 148 -1t116 -1h39q89 0 98 -67q3 -36 -10.5 -62.5t-42.5 -38.5q-38 -16 -119 -16h-27q-136 -8 -243 -8l-7 -207q-1 -24 -2 -42.5 t-1.5 -26.5t-0.5 -11q23 0 97 -4q269 -10 272 -10q65 -8 86 -72q6 -27 -14 -56t-72 -36q-63 -8 -121 -8q-225 10 -248 10v-2q-1 -39 -2 -149t-2 -142q139 0 199 6h72q8 0 31 -0.5t34.5 -1t32 -2.5t32 -6t25 -11t21 -18t10.5 -26q8 -41 -28.5 -70t-86 -39t-92.5 -6l-430 -4 q-4 28 -5.5 109.5t-1 158.5zM190 1311q6 27 146 176q9 11 28 26t31 15q8 0 26.5 -14.5t32.5 -29.5l15 -14q103 -122 106 -127q34 -77 -16 -118h2q-31 -20 -50 -20t-46 14h2q-7 4 -14.5 10t-17 16.5t-16 18t-19 22.5t-19.5 23l-51 -64q-36 -26 -66 -26q-24 0 -37 5.5 t-26 24.5q-16 21 -11 62z" />
<glyph unicode="&#xeb;" horiz-adv-x="804" d="M81.5 268q0.5 77 1.5 160t1 92q0 72 1 126.5t1 58.5q0 31 1 92t1 92v67q0 34 0.5 52.5t2.5 45t7.5 41.5t14.5 21q22 12 211 12q54 0 148 -1t116 -1h39q89 0 98 -67q3 -36 -10.5 -62.5t-42.5 -38.5q-38 -16 -119 -16h-27q-136 -8 -243 -8l-7 -207q-1 -24 -2 -42.5 t-1.5 -26.5t-0.5 -11q23 0 97 -4q269 -10 272 -10q65 -8 86 -72q6 -27 -14 -56t-72 -36q-63 -8 -121 -8q-225 10 -248 10v-2q-1 -39 -2 -149t-2 -142q139 0 199 6h72q8 0 31 -0.5t34.5 -1t32 -2.5t32 -6t25 -11t21 -18t10.5 -26q8 -41 -28.5 -70t-86 -39t-92.5 -6l-430 -4 q-4 28 -5.5 109.5t-1 158.5zM139 1286q-6 38 6 80q6 18 15 27q38 41 82 41q31 0 73 -27q39 -31 39 -80q0 -45 -32 -80q-37 -33 -82 -33t-88 46v-3l-5 11q-8 8 -8 18zM436 1296q-12 67 21 109q27 37 80 37q29 0 71 -27l-2 2q42 -23 45 -82q0 -45 -33 -78q-35 -32 -81 -32 q-55 0 -88 41q-7 7 -7 8q-6 6 -6 22z" />
<glyph unicode="&#xec;" horiz-adv-x="428" d="M13.5 1473.5q-0.5 14.5 9.5 30t32 28.5q32 12 71 -1t60 -34l133 -125l39 -63v2q10 -32 -1 -62.5t-29 -44.5q-34 -31 -70 -24l-76 63h2q-108 101 -137.5 136.5t-32.5 62.5q0 17 -0.5 31.5zM76 506q0 66 6 160q1 23 2.5 55.5t2.5 55t1 32.5v47v94v13q1 32 1.5 45t3.5 34 t8.5 29t16 18.5t27 13.5t39.5 3q19 0 33 -5.5t22 -19t13 -23t7.5 -31.5t3 -29.5t1.5 -30.5v-56v-114v-101q-4 -238 -4 -430q0 -98 2 -114v2q1 -3 1.5 -9t0.5 -23t-1.5 -32t-8 -34t-17.5 -32.5t-31 -22.5t-46 -9q-11 0 -19.5 2t-15.5 3.5t-12 7.5t-9 8t-7 11.5t-4 12t-2.5 14 t-2 14t-1.5 16.5t-1 15q0 4 -1 11.5t-1 11.5q-8 81 -8 387z" />
<glyph unicode="&#xed;" horiz-adv-x="411" d="M51 1315q0 7 2 13.5t3.5 10.5t5 10t5 8t6.5 8.5t7 8.5v-2l12 19q12 22 45 69q31 40 49 58q23 25 63 43t68 6q30 -13 39 -33t9 -49q0 -35 -27 -76l-27 -33l-20 -20l-78 -107v2q-9 -15 -23.5 -25.5t-38 -15t-51.5 8.5h2q-37 14 -46.5 36t-4.5 60zM82 506q0 66 6 160 q1 23 2.5 55.5t2.5 55t1 32.5v47v94v13q1 32 1.5 45t3.5 34t8.5 29t16 18.5t27 13.5t39.5 3q19 0 33 -5.5t22 -19t13 -23t7.5 -31.5t3 -29.5t1.5 -30.5v-56v-114v-101q-4 -238 -4 -430q0 -98 2 -114v2q1 -3 1.5 -9t0.5 -23t-1.5 -32t-8 -34t-17.5 -32.5t-31 -22.5t-46 -9 q-11 0 -19.5 2t-15.5 3.5t-12 7.5t-9 8t-7 11.5t-4 12t-2.5 14t-2 14t-1.5 16.5t-1 15q0 4 -1 11.5t-1 11.5q-8 81 -8 387z" />
<glyph unicode="&#xee;" horiz-adv-x="350" d="M-20 1305q6 28 145 176q9 11 28 26t31 15q8 0 26.5 -14.5t33.5 -29.5l14 -14q22 -26 49.5 -58t40.5 -47t17 -22q34 -76 -17 -118h2q-44 -34 -96 -7h2q-9 5 -20 15.5t-18.5 19t-24 28t-23.5 28.5l-51 -64q-37 -27 -66 -27q-23 0 -36.5 6t-26.5 25q-15 20 -10 62zM80 506 q0 66 6 160q1 23 2.5 55.5t2.5 55t1 32.5v47v94v13q1 32 1.5 45t3.5 34t8.5 29t16 18.5t27 13.5t39.5 3q19 0 33 -5.5t22 -19t13 -23t7.5 -31.5t3 -29.5t1.5 -30.5v-56v-114v-101q-4 -238 -4 -430q0 -98 2 -114v2q1 -3 1.5 -9t0.5 -23t-1.5 -32t-8 -34t-17.5 -32.5 t-31 -22.5t-46 -9q-11 0 -19.5 2t-15.5 3.5t-12 7.5t-9 8t-7 11.5t-4 12t-2.5 14t-2 14t-1.5 16.5t-1 15q0 4 -1 11.5t-1 11.5q-8 81 -8 387z" />
<glyph unicode="&#xef;" horiz-adv-x="354" d="M-74 1286q-6 38 6 80q6 18 15 27q38 41 82 41q31 0 73 -27q39 -31 39 -80q0 -45 -32 -80q-37 -33 -82 -33t-88 46v-3l-5 11q-8 8 -8 18zM82 506q0 66 6 160q1 23 2.5 55.5t2.5 55t1 32.5v47v94v13q1 32 1.5 45t3.5 34t8.5 29t16 18.5t27 13.5t39.5 3q19 0 33 -5.5t22 -19 t13 -23t7.5 -31.5t3 -29.5t1.5 -30.5v-56v-114v-101q-4 -238 -4 -430q0 -98 2 -114v2q1 -3 1.5 -9t0.5 -23t-1.5 -32t-8 -34t-17.5 -32.5t-31 -22.5t-46 -9q-11 0 -19.5 2t-15.5 3.5t-12 7.5t-9 8t-7 11.5t-4 12t-2.5 14t-2 14t-1.5 16.5t-1 15q0 4 -1 11.5t-1 11.5 q-8 81 -8 387zM223 1296q-12 67 21 109q27 37 80 37q29 0 71 -27l-2 2q42 -23 45 -82q0 -46 -32 -78q-35 -32 -82 -32q-55 0 -88 41q-7 7 -7 8q-6 6 -6 22z" />
<glyph unicode="&#xf1;" horiz-adv-x="901" d="M74 1071q1 6 4 14.5t21 25.5t46 22q69 15 129 -70l66 -100q84 -136 157.5 -262t104.5 -184l31 -58q-17 182 -17 569q0 104 80 117q49 7 74 -11t39 -63q6 -27 10 -162q0 -86 2 -216.5t2 -184.5q4 -366 6 -391q0 -4 0.5 -15.5t0.5 -18.5t-2 -17t-7 -19q-11 -22 -28 -33.5 t-54 -11.5q-35 2 -55 10.5t-43 34.5q-17 28 -213 391l-55 111q-70 126 -115 201q0 -93 4 -175l2 -92q0 -401 -10 -430q-8 -19 -14.5 -30t-26 -22t-47.5 -11q-51 0 -68.5 23.5t-19.5 60.5v86q3 311 0 583q0 48 -0.5 98.5t-1 83.5t-0.5 38q-2 33 -2 108zM150 1364q0 36 28 80 q57 80 137 80q34 -3 75.5 -31t121.5 -98q33 6 41 59q15 60 70 66q53 1 74.5 -41t9.5 -97q-18 -69 -76.5 -123t-120.5 -47q-32 6 -62 26t-126 101q-2 -6 -7.5 -23t-8.5 -25t-10.5 -21.5t-15 -19t-20.5 -9.5t-29 -2q-34 3 -63 35q-25 35 -18 90z" />
<glyph unicode="&#xf2;" horiz-adv-x="923" d="M45 565q3 83 22.5 163t56 153t87 130t119.5 94t149 44q114 3 209.5 -48t147.5 -145q29 -52 44 -89t27.5 -115.5t12.5 -188.5q0 -111 -24.5 -212.5t-73.5 -187t-133.5 -137.5t-194.5 -53q-107 -3 -186 29t-140 115q-58 75 -92.5 199.5t-30.5 248.5zM248 647 q-45 -202 47 -379v2q34 -59 77 -86.5t115 -23.5q95 1 149.5 66.5t80.5 187.5q49 202 0 366q-23 76 -69 116.5t-124 55.5q-55 6 -102.5 -18t-80.5 -70.5t-56 -100.5t-37 -116zM280.5 1512.5q-0.5 14.5 9.5 30t32 28.5q32 12 71 -1t60 -34l133 -125l39 -63v2 q10 -32 -1.5 -62.5t-29.5 -44.5q-34 -31 -70 -24l-75 63h2q-108 101 -137.5 136.5t-32.5 62.5q0 17 -0.5 31.5z" />
<glyph unicode="&#xf3;" horiz-adv-x="923" d="M45 565q3 83 22.5 163t56 153t87 130t119.5 94t149 44q114 3 209.5 -48t147.5 -145q29 -52 44 -89t27.5 -115.5t12.5 -188.5q0 -111 -24.5 -212.5t-73.5 -187t-133.5 -137.5t-194.5 -53q-107 -3 -186 29t-140 115q-58 75 -92.5 199.5t-30.5 248.5zM248 647 q-45 -202 47 -379v2q34 -59 77 -86.5t115 -23.5q95 1 149.5 66.5t80.5 187.5q49 202 0 366q-23 76 -69 116.5t-124 55.5q-55 6 -102.5 -18t-80.5 -70.5t-56 -100.5t-37 -116zM324 1315q0 6 1 11t3 10.5t3 8t4.5 8t5 7t6 7.5t5.5 7v-2l13 19q12 22 45 69q32 40 49 58 q23 25 63 43t68 6q21 -9 32 -24t13 -26.5t2 -31.5q0 -35 -27 -76l-26 -33l-21 -20l-78 -107v2q-9 -15 -23.5 -25.5t-37.5 -15t-51 8.5h2q-37 14 -46.5 36t-4.5 60z" />
<glyph unicode="&#xf4;" horiz-adv-x="923" d="M45 565q3 83 22.5 163t56 153t87 130t119.5 94t149 44q114 3 209.5 -48t147.5 -145q29 -52 44 -89t27.5 -115.5t12.5 -188.5q0 -111 -24.5 -212.5t-73.5 -187t-133.5 -137.5t-194.5 -53q-107 -3 -186 29t-140 115q-58 75 -92.5 199.5t-30.5 248.5zM248 647 q-45 -202 47 -379v2q34 -59 77 -86.5t115 -23.5q95 1 149.5 66.5t80.5 187.5q49 202 0 366q-23 76 -69 116.5t-124 55.5q-55 6 -102.5 -18t-80.5 -70.5t-56 -100.5t-37 -116zM248 1315q6 28 145 176q9 11 28.5 26t31.5 15q8 0 26.5 -14t32.5 -28l14 -15q22 -26 49.5 -58 t40.5 -47t17 -22q34 -77 -17 -119h2q-31 -20 -50 -20t-46 14h2q-7 4 -14.5 10t-17 16.5t-16 18t-19 22.5t-19.5 23l-51 -64q-36 -26 -65 -26q-24 0 -37.5 5.5t-26.5 24.5q-15 20 -10 62z" />
<glyph unicode="&#xf5;" horiz-adv-x="923" d="M45 565q3 83 22.5 163t56 153t87 130t119.5 94t149 44q114 3 209.5 -48t147.5 -145q29 -52 44 -89t27.5 -115.5t12.5 -188.5q0 -111 -24.5 -212.5t-73.5 -187t-133.5 -137.5t-194.5 -53q-107 -3 -186 29t-140 115q-58 75 -92.5 199.5t-30.5 248.5zM170 1368q0 35 29 80 q57 80 137 80q34 -3 75 -30.5t121 -98.5q33 6 41 59q15 60 70 66q53 1 74.5 -41t9.5 -97q-18 -69 -76.5 -122.5t-120.5 -46.5q-33 6 -63 26t-125 100q-2 -6 -7.5 -23t-8.5 -25t-10 -21t-15 -19t-20.5 -10t-28.5 -2q-35 3 -64 35q-25 35 -18 90zM248 647q-45 -202 47 -379v2 q34 -59 77 -86.5t115 -23.5q95 1 149.5 66.5t80.5 187.5q49 202 0 366q-23 76 -69 116.5t-124 55.5q-55 6 -102.5 -18t-80.5 -70.5t-56 -100.5t-37 -116z" />
<glyph unicode="&#xf6;" horiz-adv-x="923" d="M45 565q3 83 22.5 163t56 153t87 130t119.5 94t149 44q114 3 209.5 -48t147.5 -145q29 -52 44 -89t27.5 -115.5t12.5 -188.5q0 -111 -24.5 -212.5t-73.5 -187t-133.5 -137.5t-194.5 -53q-107 -3 -186 29t-140 115q-58 75 -92.5 199.5t-30.5 248.5zM199 1292q-6 38 6 80 q7 20 14 27q38 41 82 41q32 0 74 -27q39 -31 39 -80q0 -44 -33 -80q-36 -32 -82 -32t-88 45v-2l-4 10q-8 8 -8 18zM248 647q-45 -202 47 -379v2q34 -59 77 -86.5t115 -23.5q95 1 149.5 66.5t80.5 187.5q49 202 0 366q-23 76 -69 116.5t-124 55.5q-55 6 -102.5 -18 t-80.5 -70.5t-56 -100.5t-37 -116zM496 1303q-12 67 20 108q27 37 80 37q30 0 72 -27l-2 2q42 -23 45 -82q0 -44 -33 -77q-36 -33 -82 -33q-55 0 -88 41q-6 6 -6 8q-6 6 -6 23z" />
<glyph unicode="&#xf7;" horiz-adv-x="882" d="M10 440q-4 36 30 64t85 31l184 6q8 0 88 4t159 7t132 3q89 0 120.5 -29t27.5 -77q-2 -66 -113 -82l-213 -9q-22 0 -49.5 -1t-30.5 -1q-92 -4 -137 -6h-19q-137 -6 -163 0q-40 7 -70 30.5t-31 59.5zM322 180q1 49 32 78t67.5 30t68 -27t34.5 -79q5 -36 -21.5 -75.5 t-74.5 -40.5q-52 -1 -79 30t-27 84zM322 733q4 50 34.5 78.5t65.5 28.5t66 -27.5t36 -77.5q5 -36 -21.5 -76t-74.5 -41q-53 -1 -79.5 29t-26.5 86z" />
<glyph unicode="&#xf8;" horiz-adv-x="1038" d="M19 167.5q-1 15.5 5 28.5t10 19.5t13 17.5h-2q4 8 14.5 17.5t25 21t17.5 13.5q23 18 27 20q-28 73 -33 129q-4 23 -4 82q0 67 6 96q15 88 58 166l-2 -2q38 80 96 129q59 46 119 66q65 22 143 22q97 0 168 -32q23 -10 88 -58l25 27q8 12 32 22.5t57.5 11t57.5 -19.5 q25 -22 28.5 -52t-5.5 -52t-23 -41l-53 -43q22 -25 35 -64l2 -14q23 -83 24 -94q2 -20 2 -60q0 -39 -2 -59q-5 -50 -28 -113q-12 -38 -50 -104q-58 -89 -135 -139q-83 -50 -168 -56h-14h-10q-108 0 -181 33q-77 31 -124 76l-5 -4q-39 -35 -53 -43q-30 -27 -74 -27 q-19 0 -29 1.5t-24.5 12.5t-25.5 33q-7 17 -8 32.5zM279 530q-4 -53 2 -84q22 18 61 54t47 43l47 45l94 90l109 104q-16 13 -35 21q-40 14 -80 14q-31 0 -71 -8q-38 -11 -76 -49q-32 -29 -64 -92q-27 -70 -34 -138zM371 276q30 -20 59 -30q50 -15 94 -15q13 0 19 2 q55 3 102 41q53 50 80 113q32 65 35 145q0 50 -12 93q-14 -17 -37 -31l-62 -57h2l-26 -25l-29 -25l-123 -114z" />
<glyph unicode="&#xf9;" horiz-adv-x="866" d="M82 776q-2 216 16.5 294.5t81.5 78.5q75 0 100.5 -43t16.5 -152l-14 -292q-5 -114 20 -283q32 -208 170 -211q59 -1 95.5 34.5t60.5 112.5q14 63 14 299l-2 242q-1 26 -1.5 41t0 49.5t3.5 57t10.5 52t19 47t31 30t44.5 12.5q45 0 66 -35t32 -100l4 -154q0 -138 -6 -308 t-13 -233q-9 -53 -27.5 -101.5t-53 -100t-94.5 -88t-138 -48.5q-83 -13 -154.5 6.5t-120.5 63t-81 101t-43 124.5q-24 141 -30.5 231.5t-6.5 272.5zM243.5 1467.5q-0.5 14.5 9.5 30t32 28.5q32 12 71 -1t60 -34l133 -125l39 -63v2q10 -32 -1.5 -62.5t-29.5 -44.5 q-34 -31 -70 -24l-75 63h2q-108 101 -137.5 136.5t-32.5 62.5q0 17 -0.5 31.5z" />
<glyph unicode="&#xfa;" horiz-adv-x="866" d="M82 776q-2 216 16.5 294.5t81.5 78.5q75 0 100.5 -43t16.5 -152l-14 -292q-5 -114 20 -283q32 -208 170 -211q59 -1 95.5 34.5t60.5 112.5q14 63 14 299l-2 242q-1 26 -1.5 41t0 49.5t3.5 57t10.5 52t19 47t31 30t44.5 12.5q45 0 66 -35t32 -100l4 -154q0 -138 -6 -308 t-13 -233q-9 -53 -27.5 -101.5t-53 -100t-94.5 -88t-138 -48.5q-83 -13 -154.5 6.5t-120.5 63t-81 101t-43 124.5q-24 141 -30.5 231.5t-6.5 272.5zM354 1255q0 6 1 11.5t3 10.5t3.5 8t5 8t5 7t6 7.5t5.5 7.5v-2l12 18q15 27 45 70q28 36 49 57q23 25 63.5 43t68.5 6 q21 -9 32 -24t13 -26.5t2 -31.5q0 -35 -27 -75l-27 -33l-20 -21l-78 -106v2q-9 -15 -23.5 -26t-38 -15.5t-51.5 8.5h3q-37 14 -47 36t-5 60z" />
<glyph unicode="&#xfb;" horiz-adv-x="866" d="M82 776q-2 216 16.5 294.5t81.5 78.5q75 0 100.5 -43t16.5 -152l-14 -292q-5 -114 20 -283q32 -208 170 -211q59 -1 95.5 34.5t60.5 112.5q14 63 14 299l-2 242q-1 26 -1.5 41t0 49.5t3.5 57t10.5 52t19 47t31 30t44.5 12.5q45 0 66 -35t32 -100l4 -154q0 -138 -6 -308 t-13 -233q-9 -53 -27.5 -101.5t-53 -100t-94.5 -88t-138 -48.5q-83 -13 -154.5 6.5t-120.5 63t-81 101t-43 124.5q-24 141 -30.5 231.5t-6.5 272.5zM258 1309q6 28 145 176q9 11 28.5 26t31.5 15q8 0 26.5 -14.5t32.5 -29.5l15 -14q103 -122 106 -127q34 -77 -16 -118h2 q-43 -34 -97 -6h3q-7 4 -14.5 10t-17 16.5t-16 18t-19 22.5t-19.5 23l-52 -64q-36 -26 -65 -26q-24 0 -37.5 5.5t-26.5 24.5q-15 20 -10 62z" />
<glyph unicode="&#xfc;" horiz-adv-x="866" d="M82 776q-2 216 16.5 294.5t81.5 78.5q75 0 100.5 -43t16.5 -152l-14 -292q-5 -114 20 -283q32 -208 170 -211q59 -1 95.5 34.5t60.5 112.5q14 63 14 299l-2 242q-1 26 -1.5 41t0 49.5t3.5 57t10.5 52t19 47t31 30t44.5 12.5q45 0 66 -35t32 -100l4 -154q0 -138 -6 -308 t-13 -233q-9 -53 -27.5 -101.5t-53 -100t-94.5 -88t-138 -48.5q-83 -13 -154.5 6.5t-120.5 63t-81 101t-43 124.5q-24 141 -30.5 231.5t-6.5 272.5zM231 1284q-5 36 7 80q6 20 14 27q38 41 82 41q32 0 74 -27q38 -30 38 -80q0 -45 -32 -80q-37 -33 -82 -33q-46 0 -88 45v-2 l-4 11q-9 9 -9 18zM528 1294q-12 67 21 109q27 37 80 37q29 0 71 -27l-2 2q42 -23 45 -82q0 -46 -32 -78q-35 -32 -82 -32q-55 0 -88 41q-6 6 -6 8q-7 7 -7 22z" />
<glyph unicode="&#xfd;" horiz-adv-x="796" d="M35 1073.5q10 39.5 45 52.5q32 12 70 -3t63 -50q28 -39 76 -121l61 -108q69 -128 72 -129q3 36 70.5 201t89.5 202q33 44 94 37q31 -4 51 -27t23 -51q3 -18 -14.5 -73.5t-39.5 -102.5l-28 -61l2 2q-158 -330 -158 -367l10 -287q2 -57 2 -94q0 -47 -15.5 -70t-66.5 -30 q-68 -8 -96 51l2 -2q-14 27 -20 111q-2 87 -3 175t-1.5 124.5t-1.5 48.5l-150 272l-125 225q-22 35 -12 74.5zM274 1210q0 6 1 11.5t3 10.5t3.5 8t5 8t5 7t6 7.5t5.5 7.5v-2l12 18q15 27 45 70q24 31 50 57q23 25 63 43t68 6q21 -9 32 -24t13 -26.5t2 -31.5q0 -34 -27 -75 l-26 -33l-21 -21l-78 -106v2q-9 -15 -23.5 -26t-38 -15.5t-50.5 8.5h2q-37 14 -47 36t-5 60z" />
<glyph unicode="&#xfe;" horiz-adv-x="376" />
<glyph unicode="&#xff;" horiz-adv-x="796" d="M35 1073.5q10 39.5 45 52.5q32 12 70 -3t63 -50q28 -39 76 -121l61 -108q69 -128 72 -129q3 36 70.5 201t89.5 202q33 44 94 37q31 -4 51 -27t23 -51q3 -18 -14.5 -73.5t-39.5 -102.5l-28 -61l2 2q-158 -330 -158 -367l10 -287q2 -57 2 -94q0 -47 -15.5 -70t-66.5 -30 q-68 -8 -96 51l2 -2q-14 27 -20 111q-2 87 -3 175t-1.5 124.5t-1.5 48.5l-150 272l-125 225q-22 35 -12 74.5zM135 1296q-6 38 6 80q6 18 15 27q38 41 82 41q31 0 73 -27q39 -31 39 -80q0 -44 -33 -80q-36 -32 -81 -32q-47 0 -89 45v-2l-4 10q-8 8 -8 18zM432 1307 q-12 66 21 108q27 37 79 37q30 0 72 -27l-2 2q42 -23 45 -81q0 -45 -33 -78q-36 -33 -82 -33q-55 0 -88 41q-6 6 -6 8q-6 6 -6 23z" />
<glyph unicode="&#x152;" horiz-adv-x="1361" d="M70 559q6 229 114 387q57 80 142.5 134t175.5 61q122 7 178 -41q3 1 29.5 7t42 8.5t51.5 5.5t78 3q54 0 148.5 -1t117.5 -1h37q86 0 96 -69q7 -76 -55 -101q-37 -15 -129 -18h-15q-165 -6 -243 -6l-7 -209q-2 -55 -2 -80h23q8 0 28 -1t33 -1l138 -4q137 -4 151 -6 q67 -9 78 -58l-2 2q10 -30 -10.5 -67t-71.5 -41q-4 0 -11.5 -1t-10.5 -1q-57 -8 -97 -6q-43 0 -76 2q-62 4 -90 4q-9 0 -25 1t-22 1q-11 1 -18.5 1.5t-9.5 0.5h-3h-4v-2q-4 -106 -4 -238q0 -50 -4 -53q48 0 158 4h45q20 2 72 2q68 0 127 -6h-2q4 0 8 -0.5t13.5 -3.5t17 -8.5 t13.5 -17.5t7 -29q0 -14 -1.5 -26t-3 -21t-5.5 -16t-6 -12t-8 -9t-8 -6.5t-10 -4.5l-10 -2.5t-10.5 -2t-9.5 -1.5q-2 0 -9.5 -2.5l-10.5 -3.5q-20 -6 -115 -8q-237 0 -258 2q-61 4 -89 31q-9 9 -21 26q-84 -87 -185 -90q-109 -5 -188.5 26.5t-141.5 115.5q-57 75 -90.5 199 t-29.5 251zM258 518q0 -153 61 -258q33 -58 76.5 -84.5t118.5 -23.5q88 6 135 53q-8 161 -8 309v182q0 16 1 46t1 46q0 66 2 97v33q-53 21 -98 28q-57 9 -104.5 -14.5t-80.5 -71t-55.5 -102t-36.5 -117.5q-12 -67 -12 -123z" />
<glyph unicode="&#x153;" horiz-adv-x="1728" />
<glyph unicode="&#x178;" horiz-adv-x="796" d="M35 1073.5q10 39.5 45 52.5q32 12 70 -3t63 -50q28 -39 76 -121l61 -108q69 -128 72 -129q3 36 70.5 201t89.5 202q33 44 94 37q31 -4 51 -27t23 -51q3 -18 -14.5 -73.5t-39.5 -102.5l-28 -61l2 2q-158 -330 -158 -367l10 -287q2 -57 2 -94q0 -47 -15.5 -70t-66.5 -30 q-68 -8 -96 51l2 -2q-14 27 -20 111q-2 87 -3 175t-1.5 124.5t-1.5 48.5l-150 272l-125 225q-22 35 -12 74.5zM141 1286q-6 38 6 80q6 18 15 27q38 41 82 41q31 0 73 -27q39 -31 39 -80q0 -45 -32 -80q-37 -33 -82 -33t-88 46v-3l-4 11q-9 9 -9 18zM438 1296q-12 67 21 109 q27 37 80 37q29 0 71 -27l-2 2q42 -23 45 -82q0 -46 -32 -78q-35 -32 -82 -32q-55 0 -88 41q-7 7 -7 8q-6 6 -6 22z" />
<glyph unicode="&#x2c6;" horiz-adv-x="471" d="M33 1198q6 28 145 176q9 11 28.5 26t31.5 15q8 0 26.5 -14.5t32.5 -28.5l14 -14q22 -26 49.5 -58t40.5 -47t17 -22q34 -77 -17 -119h2q-31 -20 -50 -20t-46 14h2q-7 4 -14.5 10t-17 16.5t-16 18t-19 22.5t-19.5 23l-51 -63q-37 -27 -66 -27q-23 0 -36.5 6t-26.5 25 q-15 20 -10 61z" />
<glyph unicode="&#x2dc;" horiz-adv-x="653" d="M35 1233q0 36 28 80q57 80 138 80q34 -3 75 -30.5t121 -98.5q33 6 41 59q15 60 70 66q53 1 74.5 -41t9.5 -97q-18 -69 -76.5 -123t-120.5 -47q-32 6 -62 26t-126 101q-2 -6 -7.5 -23t-8.5 -25t-10 -21t-15 -19t-20.5 -10t-28.5 -2q-35 3 -64 35q-25 35 -18 90z" />
<glyph unicode="&#x2000;" horiz-adv-x="791" />
<glyph unicode="&#x2001;" horiz-adv-x="1583" />
<glyph unicode="&#x2002;" horiz-adv-x="791" />
<glyph unicode="&#x2003;" horiz-adv-x="1583" />
<glyph unicode="&#x2004;" horiz-adv-x="527" />
<glyph unicode="&#x2005;" horiz-adv-x="395" />
<glyph unicode="&#x2006;" horiz-adv-x="263" />
<glyph unicode="&#x2007;" horiz-adv-x="263" />
<glyph unicode="&#x2008;" horiz-adv-x="197" />
<glyph unicode="&#x2009;" horiz-adv-x="316" />
<glyph unicode="&#x200a;" horiz-adv-x="87" />
<glyph unicode="&#x2010;" horiz-adv-x="798" d="M33 469q15 41 31.5 50.5t78.5 10.5l31 2l201 7l100 12q62 4 166 4q3 0 9 -0.5t21.5 -4t28 -10t25 -21t16.5 -34.5q13 -51 -10.5 -79.5t-64.5 -28.5q-96 0 -170 -4l-320 -25l-37 -2q-63 3 -90 47q-31 39 -16 76z" />
<glyph unicode="&#x2011;" horiz-adv-x="798" d="M33 469q15 41 31.5 50.5t78.5 10.5l31 2l201 7l100 12q62 4 166 4q3 0 9 -0.5t21.5 -4t28 -10t25 -21t16.5 -34.5q13 -51 -10.5 -79.5t-64.5 -28.5q-96 0 -170 -4l-320 -25l-37 -2q-63 3 -90 47q-31 39 -16 76z" />
<glyph unicode="&#x2012;" horiz-adv-x="798" d="M33 469q15 41 31.5 50.5t78.5 10.5l31 2l201 7l100 12q62 4 166 4q3 0 9 -0.5t21.5 -4t28 -10t25 -21t16.5 -34.5q13 -51 -10.5 -79.5t-64.5 -28.5q-96 0 -170 -4l-320 -25l-37 -2q-63 3 -90 47q-31 39 -16 76z" />
<glyph unicode="&#x2013;" horiz-adv-x="833" d="M64.5 465.5q5.5 36.5 35.5 54.5q20 10 62 10h12q52 0 64 2q9 1 84.5 4t89.5 3l100 12q62 4 166 4q3 0 9 -0.5t21.5 -4t28 -10t25 -21t16.5 -34.5q13 -51 -10.5 -79.5t-65.5 -28.5q-96 0 -170 -4q-52 0 -110 -6q-2 0 -6.5 -1t-5.5 -1q-6 -1 -98 -8.5t-99 -8.5 q-3 0 -10.5 -1t-9.5 -1h-17q-32 0 -53 14q-21 8 -37 33q-27 36 -21.5 72.5z" />
<glyph unicode="&#x2014;" horiz-adv-x="1349" d="M14 469q15 20 35 53q8 8 60 8h10q51 0 63 2q9 1 371 5t401 4l101 12q62 4 168 4q3 0 9 -0.5t21 -4t27.5 -10.5t25 -21t17.5 -34q11 -53 -12 -81.5t-64 -28.5q-133 0 -170 -2q-51 0 -110 -6q-2 0 -7.5 -1t-7.5 -1q-782 -17 -794 -19q-3 0 -10.5 -1t-10.5 -1h-16 q-32 0 -53 14q-21 8 -37 33q-24 30 -17 76z" />
<glyph unicode="&#x2018;" horiz-adv-x="538" d="M98 1006q8 42 41 75q15 27 45 70q28 36 49 57q23 25 63.5 43t68.5 6q21 -9 32 -23.5t13 -26.5t2 -31q0 -36 -27 -76l-27 -33l-20 -20l-78 -107v2q-9 -15 -23.5 -26t-38 -15.5t-51.5 8.5h3q-37 14 -47 36.5t-5 60.5z" />
<glyph unicode="&#x2019;" horiz-adv-x="526" />
<glyph unicode="&#x201a;" horiz-adv-x="323" d="M47 150q-6 56 26.5 90t82.5 34q57 0 93 -36t36 -105v-24q1 -78 -43.5 -130.5t-91.5 -66.5q-38 -11 -63.5 -2.5t-25.5 33.5q0 12 24.5 54.5t39.5 57.5l2 13q-27 6 -52 27t-28 55z" />
<glyph unicode="&#x201c;" horiz-adv-x="647" d="M47 881q-17 59 16 153.5t78 145.5q31 39 92 39q30 0 58 -25q28 -29 26.5 -60.5t-24.5 -56.5l2 2q-37 -48 -45 -102q-1 -4 -4.5 -21t-4.5 -23t-5 -22t-7 -23t-8 -20t-10 -19.5t-12.5 -15.5t-16 -13.5t-19 -7.5t-22.5 -3q-46 4 -65.5 22t-28.5 50zM322 879q-17 59 16 153.5 t78 145.5q31 39 92 39q29 0 57 -25q28 -29 26.5 -60.5t-24.5 -56.5l2 2q-37 -48 -45 -102q-1 -4 -4.5 -23t-5.5 -26t-6 -24.5t-8 -25t-10 -21.5t-13 -20t-16 -14t-20.5 -11t-24.5 -3q-46 4 -65.5 22t-28.5 50z" />
<glyph unicode="&#x201d;" horiz-adv-x="622" d="M0.5 894q-1.5 -31 26.5 -60q28 -25 57 -25q61 0 92 39q45 51 78 145.5t16 153.5q-9 32 -28.5 50t-65.5 22q-13 0 -24.5 -3t-20.5 -11t-16 -14t-13 -20t-10 -21.5t-8 -25t-6 -24.5t-5.5 -26t-4.5 -23q-8 -56 -45 -103l2 2q-23 -25 -24.5 -56zM272.5 894q1.5 31 24.5 56 l-2 -2q37 47 45 103q1 4 4.5 21t4.5 23t5 22t7 23t8 20t10 19.5t12.5 15.5t16 13.5t19 7.5t22.5 3q46 -4 65.5 -22t28.5 -50q17 -59 -16 -153.5t-78 -145.5q-31 -39 -93 -39q-29 0 -57 25q-28 29 -26.5 60z" />
<glyph unicode="&#x201e;" horiz-adv-x="593" d="M41 150q-6 56 26.5 90t82.5 34q57 0 93 -36t36 -105v-24q1 -78 -43.5 -130.5t-92.5 -66.5q-38 -11 -63 -2.5t-25 33.5q0 12 24.5 54.5t39.5 57.5l2 13q-27 6 -52 27t-28 55zM311 150q-6 56 26.5 90t82.5 34q57 0 93 -36t36 -105v-24q1 -78 -43.5 -130.5t-91.5 -66.5 q-38 -11 -63 -2.5t-25 33.5q0 12 24 54.5t39 57.5l2 13q-27 6 -52 27t-28 55z" />
<glyph unicode="&#x2026;" horiz-adv-x="798" d="M25 121q17 64 102 78q38 5 78 -24t41 -81q1 -55 -30.5 -83.5t-84.5 -28.5q-54 0 -86.5 39.5t-19.5 99.5zM276 121q17 64 103 78q38 5 78 -24t41 -81q1 -55 -30.5 -83.5t-84.5 -28.5q-54 0 -87 39.5t-20 99.5zM528 121q17 64 103 78q38 5 78 -24t41 -81q1 -55 -30.5 -83.5 t-84.5 -28.5q-54 0 -87 39.5t-20 99.5z" />
<glyph unicode="&#x202f;" horiz-adv-x="316" />
<glyph unicode="&#x2039;" horiz-adv-x="782" d="M60.5 516q2.5 35 31.5 59q11 10 113 89l358 258q2 2 11 7t24.5 9t31 3t32.5 -15t28 -41q6 -14 6.5 -28.5t-5.5 -29t-14 -27.5t-21.5 -27.5t-25 -25.5t-29 -24.5t-28 -21t-26.5 -19.5l-15 -10l-61 -45l-96 -74l-76 -61q35 -35 55 -50l99 -75l55 -43l121 -103 q47 -77 14 -115q-24 -31 -65 -37t-60 13q-16 8 -23 12.5t-11 10.5l-5 6l-12 12q-201 163 -234 192q-1 2 -3.5 4t-6.5 5.5t-6 5.5q-121 94 -137 121q-22 30 -19.5 65z" />
<glyph unicode="&#x203a;" horiz-adv-x="735" d="M38.5 856q0.5 15 6.5 29q17 41 48.5 50t54.5 -2l22 -11l100 -66l371 -281q29 -24 32.5 -59t-18.5 -65q-23 -32 -82 -76t-75 -60l-281 -233q-19 -19 -60.5 -13.5t-64.5 37.5q-34 38 12 115l123 103l54 43l100 75q28 21 55 50l-78 61l-94 74l-63 45q-5 4 -15 10 q-16 12 -26.5 19.5t-28 21t-28.5 24t-24.5 25t-21 27.5t-13.5 27.5t-5.5 29.5z" />
<glyph unicode="&#x205f;" horiz-adv-x="395" />
<glyph unicode="&#x2122;" horiz-adv-x="677" d="M82 930l2 6q9 15 27 27q18 14 36 22q23 11 43 19q10 4 46 14q3 1 8 3t8 3q6 2 14 6q4 2 13 2q2 0 6 -1t6 -1l6 -6l4 -2q2 0 4 -2l10 -2l-2 -12q-3 -35 -24 -50q-16 -13 -41 -24q-2 -2 -6 -2q-1 -1 -3 -2t-3 -2q4 -54 4 -92q0 -74 -4 -113l-3 -10l-12 -2h-8q-13 0 -25 4 q-12 3 -18 6l-4 2l-2 4q-12 24 -12 53q-3 29 0 58q0 5 1 16t1 16q0 21 -2 29h-13q-4 0 -28 4q-17 3 -27 23zM262 700v9q-3 23 10 71q4 16 14.5 46t14.5 44q2 6 6 18.5t6 18.5q1 4 4 11t4.5 12.5t2.5 9.5q1 3 2 6.5t1.5 5t0.5 2.5q0 11 4 23l6 18q12 19 18 21q16 4 21 4h8 q1 0 4.5 -1t5.5 -1h2q21 -11 27 -25q5 -9 14 -35q1 3 4 8.5t4 8.5t4.5 9t4.5 9q6 12 12 21l4 4h55l4 -8q20 -40 27 -62q10 -30 21 -74q12 -55 14 -79q5 -38 2 -78l-2 -10l-10 -2h-13q-12 0 -16 2q-9 3 -12 6q-2 2 -9 2q-1 1 -3 2t-3 2l-6 2l-4 6q-8 27 -10 43q-1 7 -3 21.5 t-3 21.5q-4 16 -4 23q-4 12 -4 22l-7 -27q-2 -16 -10 -43l-4 -8h-10q-44 0 -60 25q-16 26 -22 55q-2 -8 -6 -24.5t-6 -24.5l-6 -27t-5 -24t-6 -31q-1 -5 -3 -15.5t-3 -15.5l-2 -8l-8 -2q-16 -4 -23 -4q-8 0 -24 4q-6 2 -19 10z" />
<glyph unicode="&#x25fc;" horiz-adv-x="1187" d="M0 0v1188h1188v-1188h-1188z" />
</font>
</defs>
</svg>
